<svg xmlns="http://www.w3.org/2000/svg" id="Capa_1" viewBox="0 0 765.4 595.3"><defs><style>      .st0 {        fill: #606161;      }      .st1 {        fill: #5c113c;      }    </style></defs><path class="st1" d="M137.5,304.5c0,.2,0,.4,0,.5,0,.2,0,.3-.2.5,0,.1-.2.3-.3.4-.1.1-.3.2-.4.3h-.2c0,.1,0,1,0,1,0,0,0,0,0,0,0,0,0,0,0,0,0,0,0,.1,0,.1,0,0,.1,0,.2,0v.2s-1.2.6-1.2.6v-.2s0,0,.1,0c0,0,0,0,.1,0,0,0,0,0,0-.1,0,0,0-.1,0-.2v-2.4c0,0,0,0,0,0,0,0,0,0,0,0,0,0,0-.1,0-.1,0,0-.1,0-.2,0v-.2s1.2-.6,1.2-.6c.3-.1.5-.2.6-.1.1,0,.2.2.3.4M137,305.1c0-.1,0-.2,0-.4,0-.2,0-.3-.2-.3s-.2,0-.3,0h-.1c0,0,0,1.6,0,1.6h.1c.1,0,.2-.2.3-.3,0,0,.1-.2.2-.3,0-.1,0-.2,0-.3"></path><path class="st1" d="M140,304.9v1.1l-2,.9v-.2s0,0,.1,0c0,0,0,0,.1,0,0,0,0,0,0-.1,0,0,0-.1,0-.2v-2.4c0,0,0,0,0,0s0,0,0,0c0,0,0-.1,0-.1,0,0-.1,0-.2,0v-.2s1.2-.6,1.2-.6v.2s0,0-.1,0c0,0,0,0-.1,0,0,0,0,0,0,.1,0,0,0,.1,0,.2v2.3c0,0,0,0,0,.1,0,0,0,0,0,0,0,0,0,.1,0,.1,0,0,.1,0,.3,0,0,0,.2,0,.2-.1,0,0,.1-.1.2-.2,0-.1,0-.2.1-.4,0-.2,0-.3.1-.5h.1Z"></path><path class="st1" d="M141.6,305.4c-.3.1-.5.1-.7,0-.2,0-.3-.3-.3-.5,0,0,0,0,0-.1,0,0,0-.1,0-.2v-1.7c0,0,0,0,0,0,0,0,0,0,0,0,0,0,0-.1,0-.1,0,0-.1,0-.2,0v-.2s1.2-.5,1.2-.5v.2s0,0-.1,0,0,0,0,0c0,0,0,0,0,.1,0,0,0,.1,0,.2v1.7c0,0,0,.1,0,.2,0,0,0,.1,0,.2,0,.2.1.3.2.4,0,0,.2,0,.4,0,.2,0,.3-.2.4-.5,0-.2.1-.5.1-.8v-1.2c0,0,0-.2,0-.2,0,0,0-.1,0-.2,0,0,0-.1,0-.1,0,0,0,0,0,0,0,0,0,0-.1,0,0,0-.1,0-.1,0v-.2s.9-.4.9-.4v.2s0,0-.1,0c0,0-.1,0-.1.2,0,0,0,.1,0,.3,0,.1,0,.3,0,.5v1.3c0,.4,0,.7-.2,1-.1.3-.4.5-.6.6"></path><path class="st0" d="M144.2,304.2c-.1,0-.2,0-.4.1-.1,0-.3,0-.4,0v.2c-.1,0-.2,0-.2,0v-1.2c0,0,0,0,0,0,0,.1,0,.2.1.3,0,.1.1.2.2.3,0,0,.2.1.2.1,0,0,.2,0,.3,0,.1,0,.3-.2.3-.3,0-.1,0-.3,0-.5,0-.1,0-.2-.1-.3,0,0-.2,0-.3-.1,0,0-.2,0-.2,0,0,0-.1,0-.2,0-.1,0-.2,0-.3-.2,0-.1-.1-.2-.2-.4,0-.1,0-.3,0-.4,0-.1,0-.3.1-.4,0-.1.1-.3.3-.4s.2-.2.4-.3c.1,0,.2,0,.4,0,.1,0,.2,0,.3,0v-.2c0,0,.2,0,.2,0v1.2c0,0,0,0,0,0,0-.1,0-.2-.1-.3,0-.1-.1-.2-.2-.3,0,0-.1-.1-.2-.1,0,0-.2,0-.2,0-.1,0-.2.2-.3.3,0,.1,0,.3,0,.4,0,.1,0,.2.1.2,0,0,.2,0,.3.1,0,0,.1,0,.2,0,0,0,.2,0,.2,0,.1,0,.2,0,.3.2,0,0,.2.2.2.4,0,.2,0,.3,0,.5s0,.3-.1.5c0,.2-.2.3-.3.4s-.2.2-.4.3"></path><polygon class="st0" points="207.1 258.9 209.4 257.4 211.6 258.9 210.9 256.3 213 254.6 210.3 254.5 209.4 251.9 208.5 254.5 205.7 254.6 207.9 256.3 207.1 258.9"></polygon><polygon class="st0" points="210 303.7 209.1 306.3 206.3 306.4 208.5 308.1 207.7 310.7 210 309.2 212.2 310.7 211.5 308.1 213.6 306.4 210.9 306.3 210 303.7"></polygon><polygon class="st0" points="204.2 229.1 203.3 226.5 202.4 229.1 199.6 229.2 201.8 230.8 201 233.5 203.3 232 205.5 233.5 204.8 230.8 207 229.2 204.2 229.1"></polygon><polygon class="st0" points="159.8 345.3 162.1 343.8 164.4 345.3 163.6 342.7 165.8 341 163 341 162.1 338.3 161.2 341 158.4 341 160.6 342.7 159.8 345.3"></polygon><polygon class="st0" points="196.1 334.7 198.4 333.2 200.7 334.7 199.9 332 202.1 330.4 199.3 330.3 198.4 327.7 197.5 330.3 194.8 330.4 196.9 332 196.1 334.7"></polygon><polygon class="st0" points="206.8 284.3 209.1 282.8 211.3 284.3 210.6 281.7 212.7 280 210 279.9 209.1 277.3 208.1 279.9 205.4 280 207.6 281.7 206.8 284.3"></polygon><polygon class="st1" points="123.5 334.7 125.8 333.2 128 334.7 127.3 332 129.4 330.4 126.7 330.3 125.8 327.7 124.8 330.3 122.1 330.4 124.3 332 123.5 334.7"></polygon><polygon class="st1" points="114.8 251.9 113.9 254.5 111.1 254.6 113.3 256.3 112.5 258.9 114.8 257.4 117.1 258.9 116.3 256.3 118.5 254.6 115.7 254.5 114.8 251.9"></polygon><polygon class="st1" points="121.8 229.1 120.9 226.5 120 229.1 117.2 229.2 119.4 230.8 118.6 233.5 120.9 232 123.2 233.5 122.4 230.8 124.6 229.2 121.8 229.1"></polygon><polygon class="st0" points="173.8 218.5 172.9 215.9 172 218.5 169.2 218.6 171.4 220.3 170.6 222.9 172.9 221.4 175.2 222.9 174.4 220.3 176.6 218.6 173.8 218.5"></polygon><polygon class="st1" points="115.1 306.3 114.2 303.7 113.3 306.3 110.5 306.4 112.7 308.1 111.9 310.7 114.2 309.2 116.5 310.7 115.7 308.1 117.9 306.4 115.1 306.3"></polygon><polygon class="st0" points="149 222.9 151.3 221.4 153.5 222.9 152.8 220.3 154.9 218.6 152.2 218.5 151.3 215.9 150.4 218.5 147.6 218.6 149.8 220.3 149 222.9"></polygon><polygon class="st1" points="115.1 277.3 114.2 279.9 111.5 280 113.6 281.7 112.8 284.3 115.1 282.8 117.4 284.3 116.6 281.7 118.8 280 116 279.9 115.1 277.3"></polygon><path class="st0" d="M151.4,262.2h5.8v-9.1h-5.8v9.1ZM153.1,254.7h2.5v5.8h-2.5v-5.8Z"></path><path class="st0" d="M167,262.2h5.8v-9.1h-5.8v9.1ZM168.6,254.7h2.5v5.8h-2.5v-5.8Z"></path><path class="st1" d="M91.3,336.3s0-4.5-2.7-7.2c-2.7-2.8-7.2-2.9-7.2-2.9,0,0,0,4.5,2.7,7.2,2.7,2.8,7.2,2.9,7.2,2.9"></path><path class="st1" d="M92.1,324.8c-1.6,3.6-.1,7.7-.1,7.7,0,0,4.2-1.6,5.8-5.1,1.6-3.6.1-7.7.1-7.7,0,0-4.2,1.6-5.8,5.1"></path><path class="st1" d="M74.9,289c-.6,0-1.1-.3-1.5-.6,0,0,0,0,0,0,0,0,0,0,0,.1,0,.2,0,.3,0,.5,0,.4.2.7.5,1,.2.1.4.2.6.3.6.2,1,.7,1.3,1.2.2.3.4.4.8.3.4,0,.8-.2,1.1-.4.4-.2.7-.2,1.1,0,.2,0,.5.1.7.1.4,0,.7,0,1.1-.3.4-.2.6-.6.7-1,0-.4.2-.8.5-1.1.2-.2.3-.3.4-.5.5-.5,0-1.3-.1-1.6,0,0,0,0-.1,0,0,.1-.2.2-.3.3-.4.5-.9.9-1.5,1.2-.5.3-.7.3-1.3.4,0,0-.8,0-1.1,0-.1,0-.5-.1-.6-.1-.3,0-.6.2-.9.2-.4,0-.9,0-1.3,0"></path><path class="st1" d="M76.4,287.6c.4.3.8.5,1.3.6.6.1,1.5,0,1.8,0,.5-.2.9-.4,1.3-.8,0,0,0-.1,0-.2-.2-.3-.1-.6-.1-1,0-.4,0-.8,0-1.2,0-.4-.1-.6-.4-.9-.1-.1-.3-.1-.4,0-.2.1-.4.3-.5.5-.4.5-.7,1-1.2,1.4-.3.3-.5.5-.9.7-.3.1-.7.3-1,.2-.3,0-.3.5,0,.7"></path><path class="st1" d="M74.5,283.7c-.2,0-.3,0-.5,0-.6.3-.9.8-.9,1.4,0,.4,0,.7-.2,1.1,0,.2,0,.4,0,.6,0,0,0,.1.1.2.3.6.9,1,1.5,1.2.3.1.7.1,1,.1.2,0,.4,0,.6,0,0,0,0,0,0,0,0,0,0,0,0,0-.4-.2-.7-.5-1-.9-.2-.2-.4-.5-.5-.8-.5-1.3-.3-2.4-.2-2.8,0,0,0-.1,0-.1"></path><path class="st1" d="M81.3,286.4c0,0,0,.1,0,.2,0,0,0,0,.1,0,0,0,.1-.2.2-.3,0,0,0-.1,0-.2,1.4-3.1-.4-4.6-1-4.6-.4,0-.7,0-1.1,0,0,0-.1,0,0,.1.2.3.3.7.3,1.1,0,.1,0,.2.2.3.1.1.3.2.4.3.4.3.7.7.7,1.3,0,.4,0,.8,0,1.2,0,.1,0,.3,0,.4"></path><path class="st1" d="M75.3,286.1c.3.2.7.3,1.1.2.5,0,.9-.2,1.3-.6,0,0,.1-.2.1-.3,0-.3-.1-.6-.3-.9-.1-.1-.3-.3-.5-.2-.2,0-.4.3-.3.5,0,.1.2.2.2.3,0,.1,0,.3,0,.4-.1.1-.2,0-.4,0-.3-.1-.5-.7-.4-1,.1-.4.3-.7.7-.9.3-.1.6-.1.9,0,.3.2.5.5.6.9,0,.3,0,.3.3,0,0-.1.1-.2.1-.3,0,0,0,0,0,0-.1-.4-.3-.7-.6-1-.2-.2-.5-.2-.8-.2-.3,0-.6.1-.9.3-.2.1-.4.2-.7.2-.1,0-.3,0-.4.2,0,0,0,0,0,0,0,.2,0,.5,0,.8,0,.3,0,.6,0,.9,0,.2,0,.4.2.5"></path><path class="st1" d="M83.1,288.1c.3-.2.5-.5.7-.8.1-.4.1-.7,0-1.1,0,0,0-.1,0-.2.2-.3.3-.5.5-.8.2-.4.2-.7,0-1.1-.1-.4-.3-.7-.6-1-.2-.2-.4-.3-.7-.4,0,0-.1,0-.1.1,0,.1,0,.2,0,.3.1.6.1,1.2,0,1.8-.1.4-.3.9-.5,1.3,0,0,0,.1,0,.2.3.4.5.8.5,1.3,0,0,0,.1,0,.2,0,0,0,.1.1,0"></path><path class="st1" d="M78.1,280.9c-.3.2-.5.3-.8.4-.3,0-.6.2-.8.3-.4.1-.7.4-.8.8,0,.1-.1.3-.2.4,0,0,0,.1,0,.2,0,0,0,.2.1.2.1,0,.3-.1.4-.1.2,0,.4-.2.6-.3.6-.2,1.3-.2,1.8.2.1,0,.7.6.8,1,0,0,0,.1,0,0,0,0,.2-.2.2-.4,0-.5-.1-1.2-.2-1.4-.2-.5-.5-.9-.8-1.3,0,0-.1,0-.2,0"></path><path class="st1" d="M93.1,262c-.3-.2-.6-.2-1,0-.4.3-.7.7-.9,1.2-.1.3-.3.5-.5.8-.3.3-.6.5-1,.7-.3.1-.6.2-.9.3-.4.2-.7.4-1,.8-.3.5-.2,1,0,1.5.3-.2.6-.3.8-.4.2,0,.4-.1.7,0,.3,0,.6.2,1,.3.4,0,.7,0,1,0,.3,0,.5-.3.7-.5.2-.2.3-.4.5-.6.1-.2.1-.4.2-.6,0-.2,0-.5,0-.8,0-.2,0-.4.2-.6.2-.3.5-.7.5-1.1,0-.3-.1-.8-.4-1"></path><path class="st1" d="M82.4,261.4c-.3.2-.6.5-.8.7-.2.2-.4.5-.5.8-.1.4-.2.7-.1,1.1,0,.6.2,1.1.9,1.3.4.1.8.4,1.1.8.3.3.5.6.8.8.5.3,1,.5,1.5.4.4,0,.8-.3,1.2-.5.3-.1.4-.4.5-.7,0-.2.4-.9.6-1.1-.5,0-.9,0-1.4,0-.5,0-1-.1-1.5-.3-.3-.1-.6-.3-.9-.5-.3-.2-.6-.4-.8-.7-.5-.6-.6-1.2-.6-2,0,0,0-.2,0-.3"></path><path class="st1" d="M90.1,261.7c-.6.5-1.2.8-1.9,1.1-.5.3-1,.6-1.3,1.1,0,0-.1.2-.2.3,0,0,0,0,0,.1,0,0,0,0,.1,0,.3,0,.7,0,1,0,.5,0,.9,0,1.4-.2,0,0,.1,0,.2,0,.3-.1.7-.3.9-.6.3-.4.6-.8.7-1.3,0,0,0-.1,0-.1.2-.1.3-.2.5-.3.4-.3.7-.6.8-1.1.1-.7-.3-1.4-1-1.5,0,0,0,0,0,0,0,0,0,.2,0,.2,0,.4,0,.7-.2,1.1-.2.5-.5.8-.9,1.1"></path><path class="st1" d="M83.4,261.3s-.1,0-.1,0c0,.1,0,.2,0,.3,0,.3,0,.6.1.9,0,.3.2.5.4.7.2.2.4.5.7.6.3.1.6.3.9.4.2,0,.3,0,.5.1,0,0,.1,0,.1-.1,0-.4.3-.7.5-1,.2-.2.3-.4.5-.6,0,0,0-.1,0-.1-.2-.1-.4-.3-.6-.4-.5-.3-1-.4-1.5-.5-.5,0-1-.2-1.4-.3"></path><path class="st1" d="M89.8,257.7c-.1,0-.4,0-.4.2,0,.1-.1.3-.3.4-.2.2-.6.2-.8,0-.1-.2-.3-.2-.5-.3-.2,0-.4,0-.6,0-.4.2-.7.5-.8,1,0,.3-.3.4-.4.7,0,.1,0,.2-.1.3.2,0,.4-.1.5-.1.4-.1.8-.2,1.2-.2.7,0,1-.2,1.2-.3.4-.1.7-.3,1-.6.2-.2.3-.4.3-.7,0-.1,0-.3-.2-.3"></path><path class="st1" d="M86.3,261.3c.4.2,1.1.7,1.2.8.1.1.2.1.3,0,.3-.1.6-.3.9-.5,0,0,0-.1,0-.2-.2-.3-.5-.6-.8-.8-.2-.1-.4-.2-.6-.3-.3,0-.6,0-.9,0-.5,0-1,.2-1.4.6.4.1.8.2,1.2.4"></path><path class="st1" d="M89.7,258.9c-.1.2-.3.4-.5.5-.3.2-.6.4-1,.5,0,0,0,0,0,0,.5.3.9.6,1.2,1.2,0,0,0,0,.1,0,.2-.2.7-.8.8-1,.2-.4,0-1-.3-1.3-.2-.1-.3-.1-.4,0"></path><path class="st1" d="M84.8,259c-.3-.2-.8-.2-1.4.2-.4.3-.4.9,0,1.2.3.3.7.4,1.1.4,0,0,.1,0,0,0,0-.1,0-.2,0-.3,0-.3-.1-.7,0-1,0-.1.2-.2.4-.2.1,0,.1,0,0-.2,0,0,0,0-.1,0"></path><path class="st1" d="M95.1,313.9c-.3-.1-.6-.2-.9-.2,0,0-.1,0-.1,0,0,.5-.2,2.4-.3,2.8-.2.6-.4,1.2-.8,1.7-.5.8-1.2,1.4-2,1.9-.7.4-3,.6-3.4.6-.8,0-1.4.7-1.6.9,0,0-.1.1-.2,0,0,0-.2-.2-.3-.2-.6-.4-1.1-.9-1.5-1.5,0,0-.1-.2-.2-.3,0,0-.1-.1-.2,0-.1,0-.2.1-.4.2-.7.5-.9,1.7-.6,2.3.2.6.6,1.1,1.1,1.5.7.5,1.4.6,2.2.6.4,0,.7-.2,1.1-.4.1,0,.2,0,.3,0,.6.4,1.2.5,1.9.4.7-.1,1.3-.4,1.8-1,.3-.3.5-.6.6-1,.1-.4.2-.9.2-1.4,0-.2,0-.2.2-.2.4,0,.8,0,1.1,0,.5,0,1-.3,1.5-.6.7-.4,1.1-1,1.4-1.7.1-.4.3-.8.5-1.1.2-.5.5-1,.5-1.5,0-.3-.1-.5-.3-.8-.4-.5-.8-.9-1.5-1.1"></path><path class="st1" d="M83.8,318.3c.2.5.5,1.1.9,1.5.3.3.6.6.9.8.1,0,.3.1.5,0,.6,0,.8-1,1.5-.8.2,0,.5.1.7.1.6,0,1.2-.1,1.7-.4.7-.3,1.3-.8,1.7-1.3.5-.6.9-1.2,1.2-1.9.3-.7.5-1.5.5-2.3,0-.5,0-1,0-1.5-.2-.9-.9-1.5-1.8-1.7-.6-.1-1.3,0-1.9-.2-.5,0-1-.2-1.4-.5-.5-.3-1-.4-1.5-.3-.6.1-1.1.4-1.5.8-.5.5-.6,1-.3,1.6,0,.2.2.3.4.3.2,0,.4-.2.5-.4.2-.3.6-.5.9-.6.3-.2.6-.3.9-.3.4,0,.8,0,1.2.3.4.2.6.6.8.9.3.4.6.7.8,1,.3.4.6.9.7,1.4,0,.2,0,.4.1.6.1.2.2.3.4.1,0,0,.2-.1.3-.2,0,0,.2-.1.3-.2,0,0,.1,0,0,0-.8,1.5-2.6,2.2-4.2,2-.6,0-1.2,0-1.8.2-.3.1-.7.2-1.1.3-.6.1-1.2.1-1.7-.1,0,0,0,0-.1,0,0,0,0,0,0,.1,0,.2.1.3.2.5"></path><path class="st1" d="M81,320.2c.1.1.2.2.4.3.4,0,.6-.4.8-.6.2-.3.5-.6.8-.8.3-.1.3-.2.2-.4-.2-.4-.3-.7-.4-1.1-.2-.8-.2-1.6,0-2.4.2-.5.4-1,.7-1.5,0,0,.1-.1,0-.2,0,0,0,0,0-.1-.5-.5-1.4-.2-1.9.2-.4.3-.7.7-.9,1.1-.4.5-.6,1.1-.7,1.7-.2.6-.3,1.1-.2,1.7,0,.5.2.9.4,1.3.2.4.5.7.8,1"></path><path class="st1" d="M88.5,312.1c-.1,0-.3,0-.4,0-.1,0-.3,0-.4,0-.2,0-.3.2-.3.4,0,.3-.2.5-.5.6,0,0,0,0,0,0,0,0,0-.1-.1-.2,0,0-.1,0-.2,0,0,0-.1,0-.1.1-.3.3-.5.7-.5,1.1,0,.3.2.5.4.8,0,0,.1.1.2.2.3.2.6.3,1,.3.2,0,.4-.1.5-.2.3-.2.6-.4.7-.7.1-.2.2-.5.3-.7,0-.2.1-.5.1-.7,0-.2,0-.4-.2-.5,0-.1-.2-.3-.4-.4"></path><path class="st1" d="M84.9,313.3s0,0,0,0c0,0-.3.2-.3.2-.1.1-.2.2-.3.4-.2.2-.3.5-.4.8-.1.3-.3.7-.2,1.1,0,.6.5,1.1,1,1.3.6.2,1.2,0,1.7-.1,0,0,.2,0,.2-.2,0,0,0-.2,0-.2-.5-.5-1-1-1.3-1.7-.2-.4-.3-1-.3-1.4"></path><path class="st1" d="M88.7,316.4c0,.1.2.1.3.1.3,0,.6,0,1-.1.2,0,.7,0,.7-.4,0-.1,0-.3,0-.4,0-.2,0-.5-.1-.7,0-.2-.2-.4-.3-.6,0,0,0,0,0,0,0-.1-.3-.5-.4-.2-.2.8-.6,1.5-1,2.2,0,0,0,.1,0,.2"></path><path class="st1" d="M99.7,352.1c0,.3,0,.5-.2.8,0,.3,0,.8,0,.9,0,0,.3,0,.3-.2,0,0,0-.2,0-.3,0,.6.3.9.7,1.3.3.4.8.5,1.3.6,0,0-.3.1-.3.2,0,.3.6.5.8.6.3.1.8.2,1.1.2.4,0,.7,0,1.1.1,0,0,.1,0,.1,0,.1-.3.3-.6.5-.9.2-.3.5-.5.8-.7.1-.1.3-.2.4-.4.3-.5.4-1,.2-1.5,0-.3-.2-.5-.2-.8,0-.2,0-.3,0-.5,0-.2-.2-.3-.4-.4-.3-.1-.7-.1-1-.2,0,0-.1,0-.1.1,0,.2,0,.5,0,.7,0,.1,0,.2.1.2.2,0,.4.2.5.4.3.4.2.9,0,1.3-.3.6-.9.9-1.5,1-.4,0-.7,0-1.1,0-.6,0-1.3-.2-1.8-.6,0,0,.9.2,1.3.2.4,0,.8,0,1.3,0,.3,0,.7,0,1-.2.4-.3.7-.7.6-1.2,0-.2-.2-.4-.3-.5,0,0-.1,0-.1,0-.2.3-.4.6-.7.9-.2.2-.5.3-.8.2-.4,0-.8,0-1.1,0-.5,0-.8-.1-1.1-.5-.2-.3-.3-.6-.1-.9.1-.4.5-.7.9-.8.1,0,.3,0,.4-.1-.4-.3-1.3-.1-1.6,0-.4.2-.6.5-.7.9"></path><path class="st1" d="M98.6,354.8c0,.5,0,.9.2,1.4.2.4.6.7,1,.9.4.2.9.3,1.2.7.2.2.3.3.5.4.4.3.8.3,1.2,0,.1,0,.2-.2.3-.3.3-.3.7-.6,1-.8,0,0,0,0,.1-.1,0,0,0,0,0-.1-.1,0-.2,0-.4,0-.2,0-.5,0-.7,0-.4,0-.8-.2-1.1-.4-.3-.2-.6-.4-.8-.7,0,0,0-.1-.1-.1-.1,0-.3-.1-.4-.2-.2-.1-.4-.2-.5-.4-.2-.2-.3-.5-.5-.7,0,0-.1-.1-.2,0-.2.1-.4.2-.5.3-.1.1-.3.2-.3.4"></path><path class="st1" d="M106.9,352.5s0,0,0,0c0,0,0,0,0,0,.3.7.2,1.4-.2,2-.1.2-.3.3-.5.5-.3.3-.6.5-.8.8-.2.3-.4.6-.6,1,0,0,0,.1,0,.1.2,0,.3,0,.5.1.6,0,1.1-.1,1.5-.5.5-.5.8-1,1.1-1.6.2-.4.2-.8,0-1.3-.2-.5-.6-.9-1.1-1.2"></path><path class="st1" d="M101.5,351.7c-.4.2-.5.6-.3,1,.1.2.4.4.7.4.4,0,.9,0,1.3,0,.2,0,.3,0,.5-.1.4-.3.7-.7.7-1.3,0-.3,0-.5-.2-.7-.1-.2-.3-.3-.5-.4-.4-.2-.9-.2-1.3,0,.2,0,.5,0,.7,0,.2,0,.5.2.6.4.2.3.2.7,0,1-.2.3-.5.4-.8.2-.2-.2-.4-.4-.6-.6-.2-.2-.5-.3-.8-.1"></path><path class="st1" d="M103.3,351.9c0-.1,0-.4,0-.5-.2-.2-.4-.3-.7-.3,0,0-.1,0-.2.1,0,0,0,0,0,0,.3.2.5.4.8.6,0,0,.1,0,.2,0"></path><path class="st1" d="M121.6,366.5c-.2,0-.4,0-.5.1-.8.2-1.6.2-2.4,0-.7-.1-1-.3-1.6-.6,0,0-.8-.6-1-.9-.1-.2-.4-.5-.5-.6-.4-.2-.7-.3-1.1-.5-.5-.3-.9-.6-1.3-1-.5-.5-.8-1.1-1-1.8,0,0,0,0,0-.1,0,0,0,0-.1,0-.1.2-.2.3-.4.5-.3.4-.4.9-.3,1.4,0,.3.2.5.4.8.4.7.4,1.4.4,2.2,0,.4.1.7.6.9.5.3.9.4,1.4.5.5,0,.8.4,1.1.7.2.2.4.5.6.7.4.3.7.5,1.3.6.6,0,1-.1,1.4-.4.4-.3.8-.6,1.3-.7.3,0,.6,0,.8-.1.8,0,1.1-1.3,1.1-1.6,0,0,0-.1-.1,0"></path><path class="st1" d="M122.2,362.4c0-.2-.2-.3-.4-.4-.3,0-.6,0-.9,0-.7.2-1.5.4-2.2.5-.5,0-.9,0-1.4,0-.4-.1-.8-.2-1.2-.6-.2-.2-.6.3-.5.8.2.6.4,1.1.8,1.6.5.6,1.4,1.2,1.8,1.3.6.2,1.2.3,1.9.2,0,0,.2,0,.2-.1,0-.4.4-.7.6-1.1.3-.4.7-.7,1-1.1.3-.3.4-.7.3-1.1"></path><path class="st1" d="M116.2,357.1c-.8-.2-1.5,0-2,.6-.3.3-.6.6-1,.9-.2.2-.4.4-.4.7,0,0,0,.2,0,.3-.1.9,0,1.6.5,2.4.2.4.5.6.9.9.2.2.4.3.6.5,0,0,0,0,.1,0,0,0,0,0,0-.1-.2-.5-.3-1.1-.3-1.6,0-.4,0-.7.1-1.1.5-1.7,1.6-2.6,2-2.9,0,0,0-.1,0-.2-.2-.1-.3-.2-.6-.3"></path><path class="st1" d="M121.4,365.7c.1,0,.3,0,.4-.1,0,0,.2,0,.2,0,3.8-1.9,3.1-4.8,2.6-5.2-.4-.3-.8-.5-1.2-.8,0,0-.1,0-.2,0-.1.5-.3.9-.5,1.3,0,.1-.1.3,0,.5,0,.2.1.4.2.6.2.6,0,1.2-.2,1.8-.3.5-.6.8-1,1.2-.1.1-.3.2-.3.4,0,0,0,.1,0,.2,0,0,0,.1,0,.1"></path><path class="st1" d="M117.4,358.1s0,0,0,0c-.2.2-.5.4-.6.7-.2.3-.4.6-.7.8-.2.2-.3.5-.2.7.2.4.5.8.9,1.1.5.4,1.1.5,1.7.4.1,0,.3,0,.4-.2.2-.3.3-.7.4-1.1,0-.2,0-.4-.3-.6-.3-.1-.6,0-.7.3,0,.2,0,.3,0,.5,0,.2-.2.3-.4.4-.2,0-.3-.1-.4-.3-.1-.3,0-1.1.3-1.3.4-.3.8-.5,1.3-.3.4.1.7.4.9.8.2.4,0,.9,0,1.3-.1.3-.1.3.2.3.2,0,.3,0,.4-.2,0,0,0,0,0,0,.2-.5.3-.9.1-1.4-.1-.3-.3-.6-.6-.8-.3-.2-.7-.4-1-.4-.3,0-.6-.1-.9-.3-.1-.1-.3-.3-.6-.2"></path><path class="st1" d="M126,363.2c0,0-.2,0-.2,0,0,.1-.1.2-.2.3-.3.7-.9,1.3-1.5,1.7-.5.3-1,.6-1.5.8-.1,0-.2.1-.1.2,0,.6-.1,1.2-.5,1.7,0,0,0,.1-.1.2,0,0,0,.2,0,.2.5,0,.9,0,1.3-.3.4-.3.7-.6.9-1,0,0,.1-.1.2-.2.4-.1.7-.3,1.1-.4.5-.2.8-.6.9-1,.2-.4.2-.9.1-1.4,0-.3-.2-.6-.4-.9"></path><path class="st1" d="M122.5,357.5c-.4,0-.7-.1-1.1-.3-.3-.1-.7-.3-1-.4-.5-.2-1-.1-1.5.2-.2.1-.3.2-.5.3,0,0-.1,0-.2,0-.1,0-.1.2,0,.3.2,0,.4.1.5.2.3.1.6.1.8.2.8.3,1.4.8,1.6,1.7,0,.2.2,1.1,0,1.5,0,0,0,.1,0,.1.1,0,.3,0,.4-.2.4-.5.8-1.2.9-1.6.1-.6.2-1.3.2-1.9,0,0,0-.2-.2-.2"></path><path class="st1" d="M67.8,297s3.5,2.7,7.4,2.3c3.9-.5,6.7-3.9,6.7-3.9,0,0-3.5-2.7-7.4-2.3-3.9.5-6.7,3.9-6.7,3.9"></path><path class="st1" d="M79.3,270.4c-2.9,1.3-4.1,4.7-4.1,4.7,0,0,3.4,1.2,6.2-.1,2.9-1.3,4.1-4.7,4.1-4.7,0,0-3.4-1.2-6.2.1"></path><path class="st1" d="M79.2,265.1c-2.1-.8-4.4.2-4.4.2,0,0,1,2.3,3.1,3.1,2.1.8,4.4-.2,4.4-.2,0,0-1-2.3-3.1-3.1"></path><path class="st1" d="M78.7,302.3c-1.4,3.7.4,7.7.4,7.7,0,0,4.1-1.8,5.4-5.5,1.4-3.7-.4-7.7-.4-7.7,0,0-4.1,1.8-5.4,5.5"></path><path class="st1" d="M78.5,327.9c-2.2-3.3-6.5-4.2-6.5-4.2,0,0-.9,4.4,1.3,7.6,2.2,3.3,6.5,4.2,6.5,4.2,0,0,.9-4.4-1.3-7.6"></path><path class="st1" d="M101.2,365.5c-.2,3.9,2.8,7.2,2.8,7.2,0,0,3.3-3,3.4-6.9.2-3.9-2.8-7.2-2.8-7.2,0,0-3.3,3-3.4,6.9"></path><path class="st1" d="M86.6,294.8s-.9,4.4,1.2,7.6c2.1,3.3,6.5,4.2,6.5,4.2,0,0,.9-4.4-1.2-7.6-2.1-3.3-6.5-4.2-6.5-4.2"></path><path class="st1" d="M90.6,282s1.7-3.4.8-6.5c-1-3.2-4.3-5-4.3-5,0,0-1.7,3.4-.8,6.5,1,3.2,4.3,5,4.3,5"></path><path class="st1" d="M77.3,300.9s-3.3-.4-5.6,1.4c-2.3,1.8-2.7,5.1-2.7,5.1,0,0,3.3.4,5.6-1.4,2.3-1.8,2.7-5.1,2.7-5.1"></path><path class="st1" d="M83.2,335.6c-2.9.3-5,2.8-5,2.8,0,0,2.6,2.1,5.5,1.9,2.9-.3,5-2.8,5-2.8,0,0-2.6-2.1-5.5-1.9"></path><path class="st1" d="M96.5,351c1.7-3.5.3-7.7.3-7.7,0,0-4.2,1.5-5.9,5-1.7,3.5-.3,7.7-.3,7.7,0,0,4.2-1.5,5.9-5"></path><path class="st1" d="M92,338.4c-.9,2.8.5,5.7.5,5.7,0,0,3-1.5,3.9-4.2s-.5-5.7-.5-5.7c0,0-3,1.5-3.9,4.2"></path><path class="st1" d="M103.4,336.8s-2.8,2.8-2.6,6.4c.1,3.5,3.1,6.5,3.1,6.5,0,0,2.8-2.8,2.6-6.4-.1-3.5-3.1-6.5-3.1-6.5"></path><path class="st1" d="M113.3,345s-2.7-.8-4.9.6c-2.2,1.3-3,4.2-3,4.2,0,0,2.7.8,4.9-.6,2.2-1.3,3-4.2,3-4.2"></path><path class="st1" d="M136.4,362.6c-3.8,0-7.3,2.9-7.3,2.9,0,0,2.7,3.1,6.5,3.2,3.8,0,7.3-2.9,7.3-2.9,0,0-2.7-3.1-6.5-3.2"></path><path class="st1" d="M128,367.2s-.6,3.3,1.1,5.7c1.7,2.4,4.9,3,4.9,3,0,0,.6-3.3-1.1-5.7-1.7-2.4-4.9-3-4.9-3"></path><path class="st1" d="M113.5,369.7s-.6,3.3,1.1,5.7c1.7,2.4,4.9,3,4.9,3,0,0,.6-3.3-1.1-5.7-1.7-2.4-4.9-3-4.9-3"></path><path class="st1" d="M96.6,360.9c-2.2,1.9-2.5,5.2-2.5,5.2,0,0,3.3.2,5.5-1.6,2.2-1.9,2.5-5.2,2.5-5.2,0,0-3.3-.2-5.5,1.6"></path><path class="st1" d="M84.7,288.2c-1.5,2.4-.8,5.5-.8,5.5,0,0,3.1-.7,4.7-3.1,1.5-2.4.8-5.5.8-5.5,0,0-3.1.7-4.7,3.1"></path><path class="st0" d="M243,326.1s-4.5,0-7.2,2.9c-2.7,2.8-2.7,7.2-2.7,7.2,0,0,4.5,0,7.2-2.9,2.7-2.8,2.7-7.2,2.7-7.2"></path><path class="st0" d="M232.3,324.8c-1.6-3.6-5.8-5.1-5.8-5.1,0,0-1.5,4.2.1,7.7,1.6,3.6,5.8,5.1,5.8,5.1,0,0,1.5-4.2-.1-7.7"></path><path class="st0" d="M242.9,290.1c0,.4.3.7.7,1,.3.2.7.3,1.1.3.2,0,.5,0,.7-.1.3-.1.7-.1,1.1,0,.4.2.7.3,1.1.4.4,0,.6,0,.8-.3.4-.5.7-1,1.3-1.2.2,0,.4-.2.6-.3.3-.3.5-.6.5-1,0-.2,0-.3,0-.5,0,0,0,0,0-.1,0,0,0,0,0,0-.4.3-1,.5-1.5.6-.4,0-.9,0-1.3,0-.3,0-.6-.1-.9-.2-.2,0-.5,0-.6.1-.3,0-1.1,0-1.1,0-.6,0-.8-.1-1.3-.4-.6-.3-1.1-.7-1.5-1.2,0-.1-.2-.2-.3-.3,0,0,0,0-.1,0-.2.2-.6,1.1-.1,1.6.1.1.3.3.4.5.3.3.4.7.5,1.1"></path><path class="st0" d="M244.6,288.2c.3.1,1.2.2,1.8,0,.5-.1.9-.3,1.3-.6.3-.2.4-.8,0-.7-.3,0-.7,0-1-.2-.3-.2-.6-.4-.9-.7-.4-.4-.8-.9-1.2-1.4-.1-.2-.3-.3-.5-.5-.2-.1-.3,0-.4,0-.3.2-.4.5-.4.9,0,.4,0,.8,0,1.2,0,.3,0,.7-.1,1,0,0,0,.1,0,.2.4.4.8.6,1.3.8"></path><path class="st0" d="M251.2,286.8c.1-.2.1-.4,0-.6,0-.4-.2-.7-.2-1.1,0-.6-.4-1.1-.9-1.4-.1,0-.3,0-.5,0,0,0-.1,0,0,.1.1.4.3,1.5-.2,2.8-.1.3-.3.5-.5.8-.3.4-.6.7-1,.9,0,0,0,0,0,0,0,0,0,0,0,0,.2,0,.4,0,.6,0,.3,0,.7,0,1-.1.6-.2,1.2-.6,1.5-1.2,0,0,0-.1.1-.2"></path><path class="st0" d="M243.5,283.5c.1,0,.3-.2.4-.3.1,0,.2-.2.2-.3,0-.4.2-.7.3-1.1,0,0,0-.1,0-.1-.4,0-.7,0-1.1,0-.5,0-2.4,1.5-1,4.6,0,0,0,.1.1.2,0,0,.1.2.2.3,0,0,.1,0,.1,0,0,0,0-.1,0-.2,0-.1,0-.3,0-.4,0-.4,0-.8,0-1.3,0-.5.3-1,.7-1.3"></path><path class="st0" d="M248.9,283.9s0,0,0,0c0-.2-.3-.2-.4-.2-.3,0-.5,0-.7-.2-.3-.2-.5-.3-.9-.3-.3,0-.6,0-.8.2-.3.2-.5.6-.6,1,0,0,0,0,0,0,0,.1,0,.2.1.3.2.2.2.2.3,0,.1-.4.3-.7.6-.9.3-.2.6-.2.9,0,.4.2.6.5.7.9,0,.3-.2.8-.4,1-.1,0-.2.1-.4,0-.1,0-.1-.3,0-.4,0-.1.2-.2.2-.3,0-.2,0-.5-.3-.5-.2,0-.4,0-.5.2-.2.3-.3.6-.3.9,0,.1,0,.2.1.3.3.4.8.6,1.3.6.4,0,.7,0,1.1-.2.2-.1.3-.3.2-.5,0-.3,0-.6,0-.9,0-.3,0-.5,0-.8"></path><path class="st0" d="M241.7,286.3c-.2-.4-.4-.8-.5-1.3-.2-.6-.2-1.2,0-1.8,0,0,0-.2,0-.3,0,0,0-.1-.1-.1-.3,0-.5.2-.7.4-.3.3-.5.6-.6,1-.1.4-.1.7,0,1.1.2.3.3.5.5.8,0,0,0,.1,0,.2,0,.4,0,.7,0,1.1.1.4.3.6.7.8,0,0,.1,0,.1,0,0,0,0-.1,0-.2,0-.5.2-.9.5-1.3,0,0,0-.1,0-.2"></path><path class="st0" d="M248.5,282.3c-.1-.4-.4-.7-.8-.8-.3,0-.6-.2-.8-.3-.3,0-.6-.2-.8-.4,0,0-.1,0-.2,0-.3.4-.6.8-.8,1.3-.1.3-.3.9-.2,1.4,0,.1,0,.3.2.3,0,0,0,0,0,0,0-.4.6-.9.8-1,.6-.4,1.2-.4,1.8-.2.2,0,.4.2.6.3.1,0,.3.1.4.1,0,0,.2,0,.1-.2,0,0,0-.1,0-.2,0-.1-.1-.3-.2-.4"></path><path class="st0" d="M231,262c-.3.2-.4.6-.4,1,0,.4.3.7.5,1.1.1.2.1.4.2.6,0,.3,0,.5,0,.8,0,.2,0,.4.2.6.1.2.3.4.5.6.2.2.5.4.7.5.3.1.7.2,1,0,.3,0,.6-.3,1-.3.2,0,.4,0,.7,0,.3.1.6.2.8.4.2-.5.3-1,0-1.5-.2-.4-.6-.6-1-.8-.3-.1-.6-.2-.9-.3-.4-.2-.8-.4-1-.7-.2-.2-.4-.5-.5-.8-.2-.4-.5-.9-.9-1.2-.4-.2-.6-.3-1,0"></path><path class="st0" d="M240.3,264.3c-.3.2-.6.3-.9.5-.5.2-1,.3-1.5.3-.5,0-.9,0-1.4,0,.2.2.5.9.6,1.1,0,.3.2.5.5.7.4.2.7.5,1.2.5.6,0,1.1,0,1.5-.4.3-.2.5-.5.8-.8.3-.3.7-.7,1.1-.8.7-.2.8-.7.9-1.3,0-.4,0-.8-.1-1.1,0-.3-.3-.6-.5-.8-.2-.3-.5-.5-.8-.7,0,.1,0,.2,0,.3,0,.7-.1,1.4-.6,2-.2.3-.5.5-.8.7"></path><path class="st0" d="M233,259.2c0,0,0-.1,0,0-.7.1-1.2.8-1,1.5,0,.5.4.8.8,1.1.2.1.3.2.5.3,0,0,0,0,0,.1.1.5.4.9.7,1.3.2.3.5.4.9.6,0,0,.1,0,.2,0,.4.2.9.2,1.4.2.3,0,.7,0,1,0,0,0,.1,0,.1,0,0,0,0,0,0-.1,0,0-.1-.2-.2-.3-.3-.5-.8-.8-1.3-1.1-.7-.3-1.3-.6-1.9-1.1-.4-.3-.7-.7-.9-1.1-.2-.4-.2-.7-.2-1.1,0,0,0-.2,0-.2"></path><path class="st0" d="M237.1,262.5c0,0,0,.1,0,.1.2.2.4.4.5.6.2.3.5.6.5,1,0,0,0,.1.1.1.2,0,.3,0,.5-.1.3,0,.6-.2.9-.4.3-.1.5-.3.7-.6.2-.2.3-.5.4-.7.1-.3.1-.6.1-.9,0-.1,0-.2,0-.3,0,0,0,0-.1,0-.5.1-.9.2-1.4.3-.5,0-1.1.2-1.5.5-.2.1-.4.3-.6.4"></path><path class="st0" d="M238.4,258.9c0-.5-.3-.8-.8-1-.2-.1-.4,0-.6,0-.2,0-.4.1-.5.3-.2.2-.6.2-.8,0-.1-.1-.2-.2-.3-.4,0-.1-.3-.2-.4-.2-.1,0-.3.2-.2.3,0,.3.1.5.3.7.3.3.6.4,1,.6.2,0,.5.3,1.2.3.4,0,.8,0,1.2.2.2,0,.3,0,.5.1,0-.1,0-.2-.1-.3-.2-.3-.4-.4-.4-.7"></path><path class="st0" d="M236.7,260.4c-.2,0-.4.2-.6.3-.3.2-.6.5-.8.8,0,0,0,.1,0,.2.3.2.6.4.9.5.1,0,.2,0,.3,0,.1-.1.9-.6,1.2-.8.4-.2.8-.3,1.2-.4-.4-.3-.9-.5-1.4-.6-.3,0-.6,0-.9,0"></path><path class="st0" d="M234.4,258.9c0-.2-.2-.2-.4,0-.4.3-.5.9-.3,1.3,0,.2.6.9.8,1,0,0,.1,0,.1,0,.2-.5.7-.9,1.2-1.2,0,0,0,0,0,0-.4-.1-.7-.3-1-.5-.2-.1-.4-.3-.5-.5"></path><path class="st0" d="M239.6,260.7c0,0,0,.1,0,0,.4,0,.8-.1,1.1-.4.4-.4.3-.9,0-1.2-.5-.3-1-.3-1.4-.2,0,0,0,0-.1,0,0,0,0,.1,0,.2.1,0,.3,0,.4.2.2.3.2.6,0,1,0,.1,0,.2,0,.3"></path><path class="st0" d="M233.4,321.6c0,.4,0,.8.2,1.2.1.3.4.6.6.9.4.5,1,.8,1.6.9.6,0,1.2,0,1.7-.4,0,0,.2,0,.3,0,.3.1.6.3,1,.3.7,0,1.4,0,2-.5.5-.3.8-.8,1-1.3.2-.6,0-1.7-.6-2.1-.1,0-.2-.1-.3-.2,0,0-.1,0-.2,0,0,0-.1.2-.2.2-.4.5-.9,1-1.4,1.3,0,0-.2.1-.3.2,0,0-.1,0-.2,0-.2-.2-.7-.8-1.4-.8-.4,0-2.5-.2-3.1-.5-.8-.4-1.4-1-1.8-1.7-.3-.5-.5-1-.7-1.6-.1-.4-.4-2.1-.3-2.5,0,0,0,0-.1,0-.3,0-.6.1-.8.2-.6.2-1,.5-1.3,1-.2.2-.2.4-.3.7,0,.5.3.9.4,1.4.1.3.3.7.4,1,.3.7.7,1.2,1.3,1.6.4.3.9.5,1.3.5.3,0,.7,0,1,0,.1,0,.2,0,.2.2"></path><path class="st0" d="M237.7,311.6c-.5,0-.9,0-1.3.2-.4.2-.8.4-1.2.4-.6,0-1.2,0-1.8.1-.9.1-1.5.6-1.7,1.5-.1.4,0,.9,0,1.4,0,.7.2,1.4.5,2.1.3.6.6,1.2,1.1,1.7.4.5,1,.9,1.6,1.2.5.2,1,.3,1.6.3.2,0,.4,0,.7-.1.6-.2.8.7,1.3.8.1,0,.3,0,.4,0,.3-.2.6-.4.9-.7.4-.4.6-.9.8-1.4,0-.1.1-.3.2-.4,0,0,0,0,0-.1,0,0,0,0-.1,0-.5.2-1,.2-1.6.1-.3,0-.6-.2-1-.3-.5-.2-1-.2-1.6-.2-1.5.1-3.1-.5-3.8-1.8,0,0,0-.1,0,0,0,0,.2.1.3.2,0,0,.1.1.2.2.2.1.3,0,.4-.1,0-.2,0-.3.1-.5,0-.5.3-.9.6-1.3.3-.3.5-.6.8-.9.2-.3.4-.6.8-.8.3-.2.7-.3,1.1-.2.3,0,.6.2.8.3.3.2.6.3.8.6.1.2.3.3.5.3.2,0,.3-.1.4-.3.3-.6.2-1-.3-1.4-.4-.4-.9-.6-1.4-.7"></path><path class="st0" d="M244.1,318.8c0-.5,0-1.1-.2-1.6-.1-.5-.3-1.1-.7-1.6-.2-.3-.5-.7-.8-1-.4-.3-1.3-.6-1.7-.2,0,0,0,0,0,0,0,0,0,.1,0,.2.3.4.5.9.7,1.4.2.7.2,1.5,0,2.2,0,.4-.2.7-.4,1-.1.3-.1.3.1.4.3.2.5.4.7.7.2.2.4.6.7.6.1,0,.3-.1.4-.2.3-.3.5-.6.7-.9.2-.4.4-.8.4-1.2"></path><path class="st0" d="M236.8,316.2c.1.1.3.2.5.2.3,0,.6,0,.9-.2,0,0,.1-.1.2-.2.2-.2.3-.5.3-.7,0-.4-.2-.7-.5-1,0,0,0,0-.1-.1,0,0-.1,0-.2,0,0,0,0,.2-.1.2,0,0,0,0,0,0-.2,0-.4-.3-.5-.5,0-.2,0-.3-.3-.4-.1,0-.3,0-.4,0-.1,0-.2,0-.4,0-.2,0-.3.2-.3.3,0,.1-.2.3-.2.5,0,.2,0,.4.1.6,0,.2.2.5.3.7.2.3.4.5.7.6"></path><path class="st0" d="M238.2,317.8c.5.1,1,.3,1.6.1.5-.2.9-.6,1-1.1,0-.4-.1-.7-.2-1,0-.2-.2-.5-.4-.7,0-.1-.2-.2-.3-.3,0,0-.2-.2-.3-.2,0,0,0,0,0,0,0,.4,0,.9-.2,1.3-.3.6-.7,1-1.2,1.5,0,0,0,.1,0,.2,0,0,.1.1.2.1"></path><path class="st0" d="M234.8,315.4s0,0,0,0c-.1.2-.2.4-.3.6,0,.2,0,.4,0,.6,0,.1,0,.3,0,.4,0,.2.4.3.6.3.3,0,.6,0,.9.1,0,0,.2,0,.2-.1,0,0,0-.1,0-.2-.4-.6-.7-1.3-.9-2,0-.3-.3,0-.4.2"></path><path class="st0" d="M218.6,351.6c0,.2,0,.3,0,.5,0,.3-.1.5-.2.8-.2.5-.1,1,.2,1.5.1.1.2.3.4.4.3.2.6.5.8.7.2.3.4.5.5.9,0,0,0,0,.1,0,.3-.1.7,0,1.1-.1.3,0,.8,0,1.1-.2.3-.1.8-.3.8-.6,0-.1-.2-.2-.3-.2.5,0,1-.2,1.3-.6.3-.4.7-.7.7-1.3.1.1,0,.2,0,.3,0,.2.3.2.3.2,0,0,0-.6,0-.9,0-.3,0-.5-.2-.8-.1-.4-.3-.7-.7-.9-.3-.2-1.2-.4-1.6,0,.2,0,.3,0,.4.1.4.1.7.4.9.8.1.3,0,.6-.1.9-.3.4-.7.5-1.1.5s-.8,0-1.1,0c-.3,0-.5,0-.8-.2-.3-.2-.5-.5-.7-.9,0,0-.1,0-.1,0-.2.1-.3.3-.3.5,0,.5.2.9.6,1.2.3.2.7.2,1,.2.4,0,.8,0,1.3,0,.4,0,1.2-.1,1.3-.2-.6.4-1.2.5-1.8.6-.4,0-.7,0-1.1,0-.7,0-1.2-.3-1.5-1-.2-.4-.3-.9,0-1.3.1-.2.3-.3.5-.4.1,0,.1,0,.1-.2,0-.2,0-.5,0-.7,0,0,0-.1-.1-.1-.3,0-.7,0-1,.2-.2,0-.3.2-.4.4"></path><path class="st0" d="M220.7,357.1c.4.3.7.5,1,.8.1.1.2.2.3.3.4.3.8.3,1.2,0,.2-.1.4-.3.5-.4.3-.3.7-.5,1.2-.7.5-.2.8-.4,1-.9.2-.4.3-.9.2-1.4,0-.2-.2-.3-.3-.4-.2-.1-.4-.2-.5-.3,0,0-.1,0-.2,0-.2.2-.4.5-.5.7-.1.2-.3.3-.5.4-.1,0-.3.2-.4.2,0,0-.1,0-.1.1-.2.3-.5.5-.8.7-.4.2-.7.3-1.1.4-.2,0-.5.1-.7,0-.1,0-.2,0-.4,0,0,0,0,0,0,.1,0,0,0,0,.1.1"></path><path class="st0" d="M219.5,357.1c.2,0,.4,0,.5-.1,0,0,0,0,0-.1-.2-.3-.3-.7-.6-1-.2-.3-.6-.5-.8-.8-.2-.2-.3-.3-.5-.5-.4-.6-.5-1.3-.2-2,0,0,0,0,0,0,0,0,0,0,0,0-.5.3-.9.7-1.1,1.2-.2.4-.1.9,0,1.3.3.6.6,1.2,1.1,1.6.4.4.9.6,1.5.5"></path><path class="st0" d="M221.2,350.6c-.2,0-.4.2-.5.4-.2.2-.2.5-.2.7,0,.5.3,1,.7,1.3.1,0,.3.1.5.1.4,0,.9,0,1.3,0,.3,0,.5-.1.7-.4.2-.3,0-.8-.3-1-.3-.1-.5,0-.8.1-.2.2-.4.4-.6.6-.3.2-.6.2-.8-.2-.2-.4-.2-.7,0-1,.1-.2.4-.3.6-.4.2,0,.5,0,.7,0-.4-.3-.8-.2-1.3,0"></path><path class="st0" d="M222.3,351.1c-.3,0-.5,0-.7.3-.1.1-.1.4,0,.5,0,0,0,.1.2,0,.3-.2.5-.4.8-.6,0,0,0,0,0,0,0,0,0-.1-.2-.1"></path><path class="st0" d="M212.9,361.1s0,0-.1,0c0,0,0,0,0,.1-.2.7-.5,1.3-1,1.8-.4.4-.8.7-1.3,1-.3.2-.7.3-1.1.5-.2,0-.4.5-.5.6-.2.3-1,.9-1,.9-.6.4-.9.5-1.6.6-.8.2-1.6.2-2.4,0-.2,0-.4,0-.5-.1,0,0-.1,0-.1,0,0,.4.2,1.5,1.1,1.6.2,0,.5,0,.8.1.5,0,.9.3,1.3.7.4.3.9.5,1.4.4.5,0,.9-.3,1.3-.6.2-.2.4-.4.6-.7.3-.4.6-.7,1.1-.7.5,0,1-.2,1.4-.5.4-.3.6-.5.6-.9,0-.8,0-1.5.4-2.2.1-.3.3-.5.4-.8.1-.5,0-.9-.3-1.4-.1-.2-.2-.3-.4-.5"></path><path class="st0" d="M204.5,365.8c0,0,0,.1.2.1.6,0,1.2,0,1.9-.2.4-.1,1.3-.7,1.8-1.3.4-.5.6-1,.8-1.6.2-.5-.2-1-.5-.8-.3.3-.7.4-1.2.6-.5.1-.9,0-1.4,0-.8,0-1.5-.3-2.2-.5-.3,0-.6,0-.9,0-.2,0-.4.1-.4.4,0,.4,0,.8.3,1.1.3.4.7.7,1,1.1.2.3.5.6.6,1.1"></path><path class="st0" d="M209.9,363.3s0,0,.1,0c.2-.1.4-.3.6-.5.3-.3.6-.5.9-.9.5-.7.7-1.5.5-2.4,0,0,0-.2,0-.3,0-.3-.2-.5-.4-.7-.4-.3-.7-.6-1-.9-.5-.6-1.2-.8-2-.6-.2,0-.4.2-.6.3,0,0,0,.1,0,.2.5.3,1.5,1.2,2,2.9.1.4.1.7.1,1.1,0,.6,0,1.1-.3,1.6,0,0,0,0,0,.1"></path><path class="st0" d="M201.5,359.6c0-.1,0-.1-.2,0-.4.3-.8.5-1.2.8-.5.4-1.2,3.3,2.6,5.2,0,0,.2,0,.2,0,.1,0,.3,0,.4.1,0,0,.1,0,0-.1,0,0,0-.1,0-.2,0-.2-.2-.2-.3-.4-.3-.4-.7-.8-1-1.2-.3-.6-.5-1.2-.2-1.8,0-.2.2-.4.2-.6,0-.2,0-.3,0-.5-.3-.4-.4-.8-.5-1.3"></path><path class="st0" d="M207.2,361.1c-.2,0-.3-.2-.4-.4,0-.2,0-.3,0-.5,0-.3-.4-.5-.7-.3-.2.1-.3.3-.3.6,0,.4.2.8.4,1.1,0,.1.2.2.4.2.6.1,1.2,0,1.7-.4.4-.3.7-.6.9-1.1,0-.2,0-.5-.2-.7-.3-.3-.5-.5-.7-.9-.2-.3-.4-.5-.6-.7,0,0,0,0,0,0-.2-.1-.4,0-.6.2-.2.2-.5.3-.9.3-.4,0-.7.2-1,.4-.3.2-.5.5-.6.8-.2.5,0,1,.1,1.4,0,0,0,0,0,0,0,.1.2.2.4.2.4,0,.4,0,.2-.3-.2-.4-.2-.9,0-1.3.2-.4.4-.7.9-.8.5-.1.9,0,1.3.3.3.2.5,1,.3,1.3,0,.1-.2.3-.4.3"></path><path class="st0" d="M202.9,368.1c-.4-.5-.5-1.1-.5-1.7,0-.1,0-.2-.1-.2-.5-.3-1-.5-1.5-.8-.7-.5-1.2-1-1.5-1.7,0-.1-.1-.2-.2-.3,0,0-.2-.1-.2,0-.2.3-.3.6-.4.9-.1.5,0,1,.1,1.4.2.4.4.8.9,1,.4.1.7.3,1.1.4,0,0,.1,0,.2.2.3.4.5.7.9,1,.4.3.8.4,1.3.3,0,0,.1-.1,0-.2,0,0-.1-.1-.1-.2"></path><path class="st0" d="M206.6,357.3c0,0-.1,0-.2,0-.2,0-.3-.2-.5-.3-.5-.3-.9-.4-1.5-.2-.3.1-.7.3-1,.4-.4.1-.7.2-1.1.3,0,0-.2,0-.2.2,0,.6,0,1.3.2,1.9,0,.3.4,1.1.9,1.6.1.1.3.2.4.2,0,0,0,0,0-.1-.2-.5,0-1.4,0-1.5.2-.8.8-1.4,1.6-1.7.3-.1.6-.1.8-.2.2,0,.4-.1.5-.2.1,0,.1-.2,0-.3"></path><path class="st0" d="M249.6,293c-3.9-.5-7.4,2.3-7.4,2.3,0,0,2.8,3.5,6.7,3.9,3.9.4,7.4-2.3,7.4-2.3,0,0-2.8-3.5-6.7-3.9"></path><path class="st0" d="M248.9,275.1s-1.2-3.4-4.1-4.7c-2.9-1.3-6.2-.1-6.2-.1,0,0,1.2,3.4,4.1,4.7,2.9,1.3,6.2.1,6.2.1"></path><path class="st0" d="M244.9,265.1c-2.1.8-3.1,3.1-3.1,3.1,0,0,2.3,1,4.4.2,2.1-.8,3.1-3.1,3.1-3.1,0,0-2.3-1-4.4-.2"></path><path class="st0" d="M245.4,302.3c-1.4-3.7-5.4-5.5-5.4-5.5,0,0-1.8,4.1-.4,7.7,1.4,3.7,5.4,5.5,5.4,5.5,0,0,1.8-4.1.4-7.7"></path><path class="st0" d="M246,327.9c-2.2,3.3-1.3,7.6-1.3,7.6,0,0,4.4-.9,6.5-4.2,2.2-3.3,1.3-7.6,1.3-7.6,0,0-4.4.9-6.5,4.2"></path><path class="st0" d="M220.2,358.6s-3,3.3-2.8,7.2c.2,3.9,3.4,6.9,3.4,6.9,0,0,3-3.3,2.8-7.2-.2-3.9-3.4-6.9-3.4-6.9"></path><path class="st0" d="M229.8,306.7s4.3-1,6.5-4.2c2.1-3.3,1.2-7.6,1.2-7.6,0,0-4.3,1-6.5,4.2-2.1,3.3-1.2,7.6-1.2,7.6"></path><path class="st0" d="M237.8,277c1-3.2-.8-6.5-.8-6.5,0,0-3.3,1.8-4.3,5-1,3.2.8,6.5.8,6.5,0,0,3.3-1.8,4.3-5"></path><path class="st0" d="M252.4,302.3c-2.3-1.8-5.6-1.4-5.6-1.4,0,0,.4,3.3,2.7,5.1,2.3,1.8,5.6,1.4,5.6,1.4,0,0-.4-3.3-2.7-5.1"></path><path class="st0" d="M241.3,335.6c-2.9-.3-5.5,1.9-5.5,1.9,0,0,2.1,2.5,5,2.8,2.9.3,5.5-1.9,5.5-1.9,0,0-2.1-2.5-5-2.8"></path><path class="st0" d="M227.7,343.3s-1.4,4.2.3,7.7c1.7,3.5,5.9,5,5.9,5,0,0,1.4-4.2-.3-7.7-1.7-3.5-5.9-5-5.9-5"></path><path class="st0" d="M228.6,334.2s-1.4,3-.5,5.7c.9,2.8,3.9,4.2,3.9,4.2,0,0,1.4-3,.5-5.7-.9-2.8-3.9-4.2-3.9-4.2"></path><path class="st0" d="M221.4,336.8s-2.9,2.9-3.1,6.5c-.1,3.5,2.6,6.4,2.6,6.4,0,0,2.9-2.9,3.1-6.5.1-3.5-2.6-6.4-2.6-6.4"></path><path class="st0" d="M219.5,349.9s-.8-2.9-3-4.2c-2.2-1.3-4.9-.6-4.9-.6,0,0,.8,2.9,3,4.2,2.2,1.3,4.9.6,4.9.6"></path><path class="st0" d="M195.7,365.5s-3.5-3-7.3-2.9c-3.8,0-6.5,3.2-6.5,3.2,0,0,3.5,3,7.3,2.9,3.8,0,6.5-3.2,6.5-3.2"></path><path class="st0" d="M191.9,370.2c-1.7,2.4-1.1,5.7-1.1,5.7,0,0,3.3-.6,4.9-3,1.7-2.4,1.1-5.7,1.1-5.7,0,0-3.3.6-4.9,3"></path><path class="st0" d="M206.4,372.7c-1.7,2.4-1.1,5.7-1.1,5.7,0,0,3.3-.6,4.9-3,1.7-2.4,1.1-5.7,1.1-5.7,0,0-3.3.6-4.9,3"></path><path class="st0" d="M228.2,360.9c-2.2-1.9-5.5-1.6-5.5-1.6,0,0,.3,3.3,2.5,5.2,2.2,1.9,5.5,1.6,5.5,1.6,0,0-.3-3.3-2.5-5.2"></path><path class="st0" d="M240.2,293.8s.7-3.1-.8-5.5c-1.5-2.4-4.7-3.1-4.7-3.1,0,0-.7,3.1.8,5.5,1.5,2.4,4.7,3.1,4.7,3.1"></path><path class="st0" d="M149.3,170c.1,0,.2.1.3.2s.1.2.2.3c.1.4.4,1,.8,1.9.4.9.7,1.8,1.1,2.7h.8c.2-.4.4-.9.5-1.3.2-.5.4-.9.5-1.3.2-.4.3-.8.5-1.2.1-.3.3-.6.3-.8,0-.1.1-.2.2-.3,0,0,.1-.1.3-.2,0,0,.2,0,.2-.1,0,0,.2,0,.2,0v-.3h-2.2v.3c.3,0,.5,0,.7.1.1,0,.2.1.2.2s0,.2,0,.3c0,.1,0,.3-.2.5-.1.3-.3.7-.4,1.2-.2.4-.4,1-.6,1.6-.4-1-.7-1.8-1-2.3-.2-.5-.4-.9-.4-1.1,0,0,0,0,0-.1,0,0,0,0,0,0,0,0,0-.1.1-.1,0,0,.3,0,.6-.1v-.3h-2.9v.3c.1,0,.2,0,.3,0,0,0,.1,0,.2.1"></path><path class="st0" d="M161.3,173.3h-.3c0,.1-.1.3-.3.6-.2.3-.3.4-.4.6,0,0-.1,0-.2.1,0,0-.2,0-.3,0,0,0-.2,0-.3,0-.1,0-.2,0-.3,0-.2,0-.3,0-.5,0-.1,0-.2,0-.3,0,0,0-.1-.1-.1-.2,0,0,0-.2,0-.4v-1.6h.6c.1,0,.3,0,.4,0,.1,0,.2,0,.3.2,0,0,.1.2.2.3,0,.2.1.3.1.4h.3v-2.3h-.3c0,.1,0,.2-.1.4,0,.1-.1.3-.2.3,0,0-.2.2-.3.2-.1,0-.2,0-.4,0h-.6v-2.1h.8c0,0,.2,0,.3,0,.1,0,.2,0,.3,0,.2,0,.4.2.5.4s.3.4.4.6h.3v-1.4h-4.8v.3c0,0,.2,0,.3,0,.1,0,.2,0,.3,0,.1,0,.2.1.2.2,0,0,0,.1,0,.2v3.8c0,0,0,.2,0,.2,0,0,0,.1-.2.2,0,0-.1,0-.3,0-.1,0-.2,0-.3,0v.3h5.1v-1.7Z"></path><path class="st0" d="M165.5,174.7c0,0-.2,0-.3,0-.1,0-.2,0-.2,0,0,0-.2,0-.2-.2,0,0,0-.1,0-.2v-1.7h.2c.4.4.7.8.9,1.1.2.3.5.8.9,1.3h2.1v-.3s-.1,0-.2,0c0,0-.2,0-.2,0-.1,0-.2-.1-.4-.3-.1-.1-.2-.3-.3-.4-.3-.3-.5-.6-.7-.9-.2-.3-.4-.6-.6-.8.4-.1.8-.3,1-.5.2-.2.3-.5.3-.9s-.2-.8-.5-1c-.4-.2-.9-.3-1.6-.3h-3v.3c0,0,.2,0,.3,0s.2,0,.3,0c.1,0,.2.1.2.2,0,0,0,.1,0,.2v3.8c0,0,0,.2,0,.2,0,0,0,.1-.2.2,0,0-.1,0-.3,0-.1,0-.2,0-.3,0v.3h2.9v-.3ZM164.8,169.9h.3c.4,0,.7,0,.9.2.2.2.3.4.3.8s-.1.7-.3.9c-.2.2-.5.3-.9.3h-.3v-2.3Z"></path><path class="st0" d="M171.5,174.7c-.3,0-.5,0-.6-.1-.1,0-.2-.1-.2-.2s0,0,0-.1c0,0,0-.2,0-.3,0-.1,0-.2.1-.4,0-.1,0-.3.1-.4h1.9l.5,1.1s0,0,0,.1c0,0,0,0,0,0,0,0,0,.1-.3.1-.2,0-.3,0-.5,0v.3h3v-.3c0,0-.2,0-.3,0,0,0-.2,0-.2,0,0,0-.2-.1-.2-.2,0,0,0-.1-.1-.2-.2-.5-.4-1.1-.7-1.8-.3-.7-.7-1.7-1.2-2.9h-.8c-.4.9-.7,1.7-1,2.4s-.6,1.4-.9,2.2c0,.1-.1.2-.2.3,0,0-.2.2-.3.2,0,0-.1,0-.3,0-.1,0-.2,0-.3,0v.3h2.2v-.3ZM172,170.8l.8,2h-1.6l.8-2Z"></path><path class="st0" d="M187,381.4h0c0-.2,0-.2,0-.3l-.2-.7c0-2.8-1-5.1-2.9-6.8-3-2.6-7.3-2.8-9.5-2.7-.1-1.8-.2-3.8,0-5.9h0c0-.7,0-1.9.3-3.1h7.5c10.1-3.8,27.7-17.3,36.2-29.8,8.9-13.1,9-36.6,9-36.9v-31.2c-.3-5.8,1.8-11.5,2.3-12.6h0c.8-2.6,6.5-9.1,9.9-12.6l20.4-20.7-30.8-30.2-8.8,8.1,1.8-3.3c-5.3-2-10.4-4.5-15.7-6.6-3.4-1.4-8.9-3.9-12.5-4-4.2,0-9.2,1.5-12.6,5v-2.3l.2-31.9-3.6,5.3c-3.4,4.9-7.8,6-10.2,6.3-.5-7.3,4.3-12.2,4.4-12.3l3.5-3.4h-27.1l3.5,3.4c0,0,4.9,4.9,4.4,12.3-2.4-.3-6.8-1.5-10.2-6.3l-3.6-5.2v31.9h0c0,.4,0,1.2,0,2.5-3.4-3.3-8.2-4.7-12.2-4.7-3.5,0-9,2.6-12.5,4-5.3,2.1-10.4,4.6-15.7,6.6l2.5,4.7-9.8-10.1-30.9,30.3,20.4,20.7c3.4,3.5,9.1,10,9.9,12.6h0c.3.7,2.5,6.5,2.3,12.6v31.1c0,1,.2,24,8.9,36.9,8.6,12.6,25.7,25.6,35.8,29.5,0,0,0,0,0,0,.4.2.9.3,1.4.2h6.4c.2,1.3.3,2.5.3,3.2h0c.1,2.2.1,4.1,0,5.9-2.2,0-6.6.1-9.5,2.7-1.9,1.6-2.9,3.9-2.9,6.8l-.2.7c0,0,0,.2,0,.3h0c0,.9,0,1.7.1,2.4h-.1s.3.9.3.9c1.6,4.7,6.7,5.1,8.2,5.1s1.1,0,1.5-.1c9.9-.7,13.6-7.3,15-11.4,1.4,4.2,5,10.7,14.9,11.4.5,0,1,.1,1.6.1,1.5,0,6.6-.4,8.3-5.1l.3-.9h-.1c.1-.7.2-1.5.1-2.4M109.4,207h0s3.4.8,3.4.8c.4-.4,2.2-1.6,2.7-1.8,1.8-.8,3.7-.9,5.6-.5.2.2-.5.8-.6,1-3.5,3.8-8,6.2-6.3,12.3.4,1.4,1.4,3,2.5,3.9,0,0,.3.3.8.6l-13.4,15.9.2.5c6.3,12.7,5,41.9,3.7,58.1,0,.3-4.5,30.4,30.2,52.3-.6.8-1.1,1.7-1.2,2.8-.2,1.3,0,2.5.8,3.8-9.7-5.3-22.7-16-29.6-26.2-8.3-12.1-8.5-34.9-8.5-35.2v-31c.3-7-2.4-13.5-2.4-13.7-1.3-4.1-9.7-12.8-10.7-13.7l-18.2-18.5,26.5-26,11.7,12.2,2.8,2.5s0,0,0,0M158.2,167.8h.4s.5-.1.5-.1v-.8c1.4-6.9-1.5-12.2-3.4-14.8h12.8c-1.9,2.6-4.8,7.9-3.5,14.8v.3c0,0,0,0,0,0v.4c.1,0,.5,0,.5,0h.4c.3,0,7,.6,12.5-5.2v20c-5.6-5.9-12.4-5.7-12.7-5.7h-1.1c0,0,0,67.6,0,67.6h-5.2v-67.6h-1.1c-.3,0-7.2.6-12.7,6.5v-20.7c5.5,5.8,12.2,5.3,12.5,5.2M166.6,246v-2.2h2.5v2.2h5.8v-2.2h2.5v4.8h-30.4v-4.8h2.5v2.2h5.8v-2.2h2.5v2.2h9ZM168.6,242.2l.8-4.9h4.8l.8,4.9h-2v2.2h-2.5v-2.2h-2ZM147.7,322c-.1-1-.7-1.9-1.5-2.5l-.2-10.5.6-.3c1.4-.6,2.3-2,2.3-3.6v-11.5c-.1,0-3.1,1.4-3.1,1.4v-6.3c1.1-.5,1.9-1.6,2-2.9h1.1v-3.3h27.1v3.3h1.1c.1,1.3.9,2.4,2.1,2.9v5.9c-.1,0-3.2-1.4-3.2-1.4v11.5c-.1,1.5.8,3,2.2,3.6l.6.3-.2,11.1c-.8.6-1.3,1.4-1.4,2.4h-1.2v4.7h-26.9v-4.7h-1.2ZM146,285.7c-.2.9-.9,1.5-1.8,1.5h-7.4c-.9,0-1.7-.7-1.8-1.5h11.1ZM133.5,282.4h13.9v1.9h-13.9v-1.9ZM144.1,295.7l-7.1,3.3.2-10h6.8v6.7ZM137,300.7l7.2-3.4,1.5-.7,1.5-.7v9.1c0,.9-.4,1.8-1.3,2.2,0,0,0,0,0,0l-1.5.7-7.6,3.5-1.5.7-1.7.8.3-9.7c0-.6.4-1.1.9-1.4l.7-.3,1.5-.7ZM144.6,318.8h-8v-5.7c.1,0,7.8-3.5,7.8-3.5l.2,9.2ZM136.7,320.5h7.4c.9,0,1.6.6,1.8,1.4h-11.1c.2-.8.9-1.4,1.8-1.4M147.3,326.6h-13.6v-3h13.6v3ZM155.5,280.7v-8.1c0-3.6,3-6.6,6.6-6.6s6.6,3,6.6,6.6v8.1h-13.2ZM177.5,323.6h13.6v3h-13.6v-3ZM178.7,322c.2-.8.9-1.4,1.8-1.4h7.4c.9,0,1.6.6,1.8,1.4h-11.1ZM180,318.8l.2-9.7,7.7,3.5v6.2c.1,0-.4,0-.4,0h-7.5ZM187.9,311l-7.6-3.4-1.5-.7s0,0,0,0c-.8-.4-1.4-1.2-1.4-2.2v-9.1c0,0,1.6.7,1.6.7l1.5.7,7.2,3.4,1.5.7.7.3c.5.3.9.8.9,1.4l.3,9.7-1.7-.8-1.5-.7ZM180.5,295.2v-6.4h7l.2,9.7-7.1-3.3ZM180.5,287.3c-.9,0-1.7-.7-1.8-1.5h11.1c-.2.9-.9,1.5-1.8,1.5h-7.4ZM177.3,282.4h13.9v1.9h-13.9v-1.9ZM191.1,280.7h-20.7v-8.1c0-4.5-3.7-8.2-8.2-8.2s-8.2,3.7-8.2,8.2v8.1h-20.2v-6.4s.6-.4.6-.4l3.1-2.2,4.5-3.4,5-3.8v-14.3h30.4v14.3l4.9,3.7,5.3,3.9,2.6,1.7,1.2.8v6.1ZM149,242.2l.9-4.9h4.8l.8,4.9h-2v2.2h-2.5v-2.2h-2ZM157.3,242.2h-.4l-1.1-6.3v-1.5h-1.4v1.5h-1.4v-1.5h-1.4v1.5h-1.4v-1.5h-1.4v1.5l-1.1,6.3h-2.3v21.8l-8.8,6.7-4.4,3.2v6.8h-10.6c.6-15.1.4-30.9-1.8-39.7l15-16.8c2.3.8,9.9,3.2,22.8,3.3v14.6ZM120.6,294.1c.3-3.7.5-7.7.7-11.7h10.8v3.3h1.1c.1,1.4,1.1,2.6,2.4,3l-.2,11-1.4.7c-1.1.5-1.8,1.5-1.8,2.7l-.3,12.2,3.2-1.5v5.5c-1.1.5-1.8,1.5-1.9,2.7h-1.2v4.7h-2.5c-2.6-3-5.1-6.6-7-10.8,0,0-3.1-5.9-1.9-21.7M193.1,328.3c-5.5,5.9-11.2,9.3-13,10.2-1.8-1.1-7.9-4.2-17.7-4.2s-16.6,3.2-18.5,4.2c-1.7-.9-7.4-4.3-13-10.2h62.1ZM192.7,326.7v-4.7h-1.2c-.1-1.2-.9-2.2-1.9-2.7v-5.9c-.1,0,3.1,1.5,3.1,1.5l-.3-12.2c0-1.2-.7-2.2-1.8-2.7l-1.4-.7-.2-10.5c1.4-.4,2.4-1.6,2.5-3h1.1v-3.3h10.2c.2,4,.4,8,.7,11.7,1.2,15.7-1.9,21.7-2,21.8-1.9,4.2-4.4,7.8-7,10.8h-1.8ZM202.7,280.7h-10v-6.8l-4.9-3.3-8.9-6.5v-21.8h-2.3l-1.1-6.3v-1.5h-1.4v1.5h-1.4v-1.5h-1.4v1.5h-1.4v-1.5h-1.4v1.5l-1.1,6.3h-.4v-14.6c12.8,0,20.4-2.4,22.7-3.3l15,16.8c-2.1,8.7-2.4,24.5-1.8,39.7M146.1,186.7c4.1-4.2,8-5.8,10.3-6.4v14h-9.9s0,.6,0,.6c-.4-2.3-1.4-4.2-2.6-5.8l2.2-2.4ZM146.6,203.3c0-.6.2-4.6.2-5.6h10.5v27.8c-14.9,0-22.6-3.3-22.7-3.4l-.7-.3-16.8,18.7v.6c3,10.9,2.6,34.4,1.2,52.9-1.2,16.5,2,22.7,2.1,22.8,7.4,16.2,22.3,23.6,22.9,23.9l.5.3.5-.3c0,0,6.9-4.2,17.9-4.2s17,4.1,17.1,4.2l.5.3.6-.3c.6-.3,15.5-7.7,22.9-23.9.1-.3,3.4-6.4,2.2-22.9-1.4-18.4-1.8-42,1.1-52.9v-.6c.1,0-16.6-18.7-16.6-18.7l-.7.3c0,0-7.8,3.3-22.6,3.4v-27.8h4.7s5.8,0,5.8,0c0,1.5.1,4.4.2,5,.3,3.1,1.3,6.1,2.8,8.8l1.3,2c2.3,2.7,5,4.9,8.2,6.5,3.3,1.6,7.5,3.2,11.1,3.8,0,0,2.5.2,3.7,0l13.2,15.6c-6.2,13.5-4.9,42.3-3.6,58.6,0,.3,4.4,29.6-29.6,50.8-.9-.8-1.6-1.2-1.7-1.3-9.7-4.7-15.1-.6-15.9.1-.7.5-3.9,3-5,11.4-1.1-8.4-4.3-10.9-5-11.4-.8-.7-6.2-4.8-15.9,0,0,0-.8.5-1.6,1.2-17.6-11-24.8-24.1-27.7-33.2-3.2-10-2-17.5-2-17.6,1.3-16.2,2.6-45.2-3.7-58.5l12.9-15.2c.1,0,.2.1.3.1,1,.3,4,0,4,0,3.6-.6,7.8-2.2,11.1-3.8,3.2-1.5,5.9-3.8,8.2-6.5l1.3-2c1.6-2.7,2.6-5.7,2.8-8.8M229.2,192.3l26.5,26-18.2,18.5c-1,1-9.4,9.6-10.6,13.6-.1.3-2.8,6.8-2.6,13.7v31.1c0,.2-.1,23-8.4,35.2-6.9,10.2-20,21-29.8,26.2.7-1.3,1-2.6.8-3.9-.1-.9-.5-1.6-.9-2.3,18.1-11.4,25.4-24.9,28.3-34.3,3.3-10.5,2-18.1,2-18.3-1.3-16.2-2.6-45.3,3.7-58l.3-.6-13.8-16.3c.5-.4,1-.7,1-.7,1.1-1,2.1-2.5,2.5-3.9,1.7-6-2.9-8.4-6.3-12.3-.2-.2-.9-.8-.6-1,1.9-.4,3.8-.4,5.6.5.5.2,2.4,1.4,2.7,1.8l3.4-.8,14.4-14.1ZM169.8,369.4c-1.3-11.5,3.4-15.8,3.5-15.9,2-1.8,3.8-2.3,5.3-2.3s2.8.6,2.9.7c1.7,1.1,2.5,2.1,2.5,3.2,0,.5-.2,1-.5,1.4,0,0-.1.1-.2.2h0c0,.1-.2.3-.3.4,0-1.2-.3-2.2-1-3-1.6-1.9-4.6-1.5-4.7-1.5-5.8.6-6.1,11-6.1,12.2-.9,14.5,4.6,17.5,4.8,17.5,3.2,1.9,6,1.4,7.9.3-.1.9-.4,1.6-1,2-1.4,1-4,.5-4.9.2-7.6-2.5-8.2-15.3-8.3-15.5M167.7,369.6c0,.6.6,13.3,8.7,17-11.3-1.3-12.1-11.6-12.1-12.1-2.4-21,3.8-25,3.9-25l.2-.2s4.6-4.2,13.5.2c0,0,.9.5,1.8,1.4-.3-.3-.7-.5-1-.7-1.8-1.1-6.4-2.2-10.7,1.9-.2.2-5.6,5-4.2,17.6M180.7,358.9h-6.2c.6-2,1.7-3.8,3.3-4,0,0,1.9-.3,2.8.7.6.7.5,2.1.2,3.2M173.9,374c1.4-.1,5.5-.2,8,1.9,1.2,1,1.8,2.4,1.9,4.3-.8.7-3.2,2.4-6.6.3,0,0-2.2-1.3-3.2-6.5M204.2,208.6c-1.2.3-2.3.5-3.3,1.3-2.4,2.1-2.9,5.8-.7,8.2.5.5,1.4,1.2,2.2,1,0,0,.6-.6.7-.7.5-1.3-.4-1.4-1-2.1-2.6-2.9,2.2-7.3,5-3.3,3.3,4.7-2.9,11.4-8.2,6.9-4.8-4-2.7-11.6,2.5-14.1l2.9,2.8ZM140.9,384.8c-.5-.4-.9-1.1-1-2,1.8,1.1,4.6,1.6,7.8-.3.2-.1,5.7-3.1,4.8-17.5,0-1.2-.3-11.6-6-12.2-.1,0-3.1-.5-4.7,1.4-.7.8-1,1.8-1,3,0-.1-.2-.2-.3-.4h0c0,0-.1-.1-.2-.2-.3-.5-.5-.9-.5-1.4,0-1.1.8-2.2,2.5-3.2,0,0,3.9-2.3,8.2,1.7,0,0,4.7,4.2,3.4,15.9,0,.1-.6,12.9-8.2,15.4,0,0-3.3,1.1-4.9-.2M142,376c2.4-2.1,6.6-2,8-1.9-1,5.2-3.2,6.5-3.3,6.6-3.4,2-5.8.3-6.6-.4,0-1.8.7-3.2,1.9-4.3M149.5,358.9h-6.2c-.3-1.2-.4-2.5.2-3.2.7-.8,2.2-.8,2.8-.7,1.6.2,2.6,1.9,3.2,4M156.2,369.7c1.4-12.7-3.9-17.5-4.1-17.7-4.4-4.1-8.9-3-10.8-1.9-.4.2-.7.5-1,.7.8-.9,1.7-1.4,1.7-1.4h0c8.9-4.3,13.4-.3,13.6-.2l.2.2c0,0,6.3,4,3.9,25.1,0,.5-.9,10.8-12.1,12.1,8.1-3.7,8.7-16.4,8.7-16.9M125.4,220.5c-5.3,4.5-11.6-2.2-8.2-6.9,2.8-4,7.6.5,5,3.3-.6.7-1.5.8-1,2,0,.1.6.7.7.7.8.3,1.7-.4,2.2-1,2.2-2.4,1.7-6.1-.7-8.2-1-.8-2.1-1.1-3.3-1.3l2.9-2.8c5.2,2.5,7.2,10.1,2.5,14.1M211.9,205.7c-.8-.4-1.5-1-2.3-1.4-9.5-4.5-19.5,7.3-12.7,15.6l1.4,1.4c-8.4-3.4-8.1-13-3.5-19.6,5.4-7.9,14.3-10.3,23.3-7.3l-6.2,11.3ZM211.7,191.6c-.1.3-.4.2-.6.2-2.9.2-4.8.2-7.6,1.2-9.6,3.4-17.3,15.9-11.4,25.4-5.8-4.2-6.5-11.8-4-18.2,2.7-7,10.1-10.6,17.2-11.3l6.4,2.6ZM196.2,185.4l6,2.4c-6.6,1.3-12.7,5-15.4,11.5-2.5,6.1-2.2,13.1,2.1,18.3-7.2-4.1-11.5-12.6-9.5-20.9,1.8-7.2,9.4-12.9,16.8-11.3M177.5,195.1h0v-.9s-9.8,0-9.8,0v-14.1c2.4.4,6.4,1,9.6,5.2l2.7,3.5c-1.2,1.7-2.1,3.8-2.4,6.3M128,186c7.5-1.6,15.1,4.1,16.8,11.3,2,8.2-2.2,16.8-9.5,20.9,4.2-5.2,4.6-12.2,2.1-18.3-2.7-6.5-8.7-10.1-15.4-11.5l6-2.4ZM118.9,189.5c7.1.6,14.5,4.3,17.2,11.3,2.5,6.3,1.8,14-4,18.2,5.9-9.5-1.8-22.1-11.4-25.4-2.8-1-4.7-1-7.6-1.2-.2,0-.5,0-.6-.2l6.4-2.6ZM129.4,202.3c4.5,6.6,4.9,16.2-3.5,19.6l1.4-1.4c6.7-8.3-3.2-20.1-12.7-15.6-.8.4-1.5,1-2.3,1.4l-6.2-11.3c9-2.9,17.9-.5,23.3,7.3M106.1,200.9h0s0,0,0,0h0Z"></path><path class="st0" d="M180.6,301.3s.1,0,.2,0c0,0,.1,0,.1,0v-.2s-.9-.4-.9-.4v.2s0,0,0,.1c0,0,.1,0,.1.1,0,0,0,0,0,.1,0,0,0,0,0,.1,0,0,0,.1,0,.2,0,0,0,.1,0,.2l-.2,1c0,.3-.2.5-.3.6-.1.1-.3.1-.5,0-.2,0-.3-.2-.3-.3,0-.1-.1-.3,0-.5,0,0,0-.1,0-.2,0,0,0-.1,0-.2l.4-1.5s0,0,0-.1c0,0,0,0,.1,0s0,0,.1,0c0,0,0,0,.1,0v-.2s-1.2-.5-1.2-.5v.2c0,0,.1.1.2.2,0,0,0,.1,0,.2,0,0,0,0,0,0,0,0,0,0,0,0l-.4,1.5c0,0,0,.1,0,.1,0,0,0,0,0,.1,0,.3,0,.5.2.7.1.2.3.4.6.5.3.1.5.1.7,0,.2-.1.4-.4.4-.7l.3-1.1c0-.2,0-.3.1-.4,0,0,0-.1.1-.2"></path><path class="st0" d="M182.5,304.4c0,.1-.2.2-.2.2,0,0-.1,0-.2,0,0,0-.2,0-.3,0-.1,0-.2-.1-.3-.1s0-.1,0-.2c0,0,0,0,0,0,0,0,0,0,0-.1l.5-2s0,0,0-.1c0,0,0,0,.1,0,0,0,0,0,.1,0,0,0,0,0,.1,0v-.2s-1.2-.5-1.2-.5v.2c0,0,.1.1.2.2,0,0,0,.1,0,.2,0,0,0,0,0,0,0,0,0,0,0,0l-.5,2.1s0,0,0,.1c0,0,0,0-.1,0,0,0,0,0-.1,0,0,0,0,0-.1,0v.2s2,.8,2,.8l.3-.9h-.1c0,0-.1.1-.2.3"></path><path class="st0" d="M185.2,303.4c0,0,0,.2,0,.2s0,.1,0,.2h.1s.2-.8.2-.8l-2.2-.9-.2.9h.1s0,0,.1-.1c0,0,0-.1.1-.2,0,0,0,0,.1-.1,0,0,0,0,.1,0,0,0,0,0,.1,0,0,0,0,0,.1,0h0s-.6,2.4-.6,2.4c0,0,0,0,0,.1,0,0,0,0-.1,0,0,0,0,0-.1,0,0,0-.1,0-.1,0v.2s1.2.5,1.2.5v-.2s0,0,0,0c0,0,0,0-.1,0,0,0,0,0,0,0,0,0,0,0,0-.1,0,0,0,0,0,0,0,0,0,0,0,0l.6-2.3h0s0,0,.1,0c0,0,0,0,.1,0,0,0,0,0,0,.1,0,0,0,.1,0,.2"></path><path class="st0" d="M190.1,307.9s0,0,0-.1c0,0,0,0,0-.1,0-.3,0-.7,0-1.2,0-.5,0-1,0-1.8h-.3c-.3.3-.5.7-.7,1-.2.3-.4.7-.7,1.1,0,0,0,.1-.1.1,0,0,0,0-.1,0,0,0,0,0-.1,0,0,0,0,0,0,0,0,0,0,0,0,0,0,0,0,0,0,0,0,0,0-.1-.1-.2,0-.1,0-.2,0-.3,0-.3-.1-.5-.2-.7,0-.2-.1-.4-.1-.5.2,0,.4,0,.6-.2.1-.1.2-.3.2-.5,0-.2,0-.4-.2-.6-.1-.2-.3-.3-.6-.4l-1.2-.5v.2c0,0,.1.1.2.2,0,0,0,.1,0,.2,0,0,0,0,0,0,0,0,0,0,0,0l-.5,2.1c0,0,0,0,0,.1,0,0,0,0-.1,0,0,0,0,0-.1,0,0,0,0,0-.1,0v.2s1.2.5,1.2.5v-.2c0,0-.1-.1-.2-.2,0,0,0-.1,0-.2,0,0,0,0,0,0,0,0,0,0,0,0l.2-.9h.1c0,.3.2.6.2.8,0,.2.1.5.2.9l.7.3.9.4v-.2c0,0-.1-.1-.2-.2,0,0,0,0,0-.1,0,0,0,0,0,0,0,0,0,0,0-.2,0,0,0-.1.1-.2,0,0,0-.1.1-.2l.8.3v.7s0,0,0,0c0,0,0,0,0,0,0,0,0,0,0,0,0,0-.1,0-.3,0v.2s1.2.5,1.2.5v-.2s0,0,0,0c0,0,0,0,0,0M186.5,305h-.2c0,0,.3-1.3.3-1.3h.1c.1.1.2.2.3.3,0,.1,0,.2,0,.4,0,.3,0,.5-.2.6-.1.1-.3.1-.4,0M188.7,306.2l.6-1v1.2c0,0-.6-.3-.6-.3Z"></path><g><path class="st0" d="M302.4,261.6h-6.3v-27h6.3v27ZM315.1,250.5h-13.2v-5.3h13.2v5.3ZM314.6,234.6h6.2v27h-6.2v-27Z"></path><path class="st0" d="M331.5,261.9c-1,0-1.9-.4-2.6-1.1-.7-.7-1.1-1.6-1.1-2.7s.4-2,1.1-2.7c.7-.7,1.6-1,2.6-1s1.9.3,2.7,1c.7.7,1.1,1.6,1.1,2.7s-.4,2-1.1,2.7c-.7.7-1.6,1.1-2.7,1.1"></path><path class="st0" d="M351.8,261.6l12-27h6.2l12.1,27h-6.5l-9.9-23.8h2.5l-9.9,23.8h-6.4ZM357.8,255.8l1.6-4.7h13.9l1.6,4.7h-17.1Z"></path><polygon class="st0" points="393.9 261.6 393.9 250.6 395.3 254.4 383.4 234.6 390.1 234.6 399.2 249.7 395.4 249.7 404.5 234.6 410.6 234.6 398.7 254.4 400.2 250.6 400.2 261.6 393.9 261.6"></polygon><path class="st0" d="M427.6,262.1c-3.8,0-6.8-1.1-9-3.2-2.2-2.1-3.2-5.2-3.2-9.2v-15.1h6.3v14.9c0,2.5.5,4.4,1.6,5.5,1.1,1.1,2.5,1.7,4.4,1.7s3.4-.6,4.4-1.7c1.1-1.1,1.6-3,1.6-5.5v-14.9h6.1v15.1c0,4-1.1,7-3.2,9.2-2.2,2.1-5.1,3.2-8.9,3.2"></path><polygon class="st0" points="448.3 261.6 448.3 234.6 453.5 234.6 469.4 254 466.9 254 466.9 234.6 473.1 234.6 473.1 261.6 467.9 261.6 452 242.2 454.5 242.2 454.5 261.6 448.3 261.6"></polygon><polygon class="st0" points="487.4 261.6 487.4 239.7 478.8 239.7 478.8 234.6 502.3 234.6 502.3 239.7 493.6 239.7 493.6 261.6 487.4 261.6"></polygon><path class="st0" d="M504.4,261.6l12-27h6.2l12.1,27h-6.5l-9.9-23.8h2.5l-9.9,23.8h-6.4ZM510.5,255.8l1.6-4.7h13.9l1.6,4.7h-17.1Z"></path><polygon class="st0" points="539.8 261.6 539.8 234.6 545 234.6 556.5 253.7 553.7 253.7 565 234.6 570.2 234.6 570.2 261.6 564.4 261.6 564.3 243.6 565.5 243.6 556.4 258.7 553.6 258.7 544.4 243.6 545.7 243.6 545.7 261.6 539.8 261.6"></polygon><rect class="st0" x="578.9" y="234.6" width="6.3" height="27"></rect><path class="st0" d="M600.1,256.6h14.7v5h-20.9v-27h20.4v5h-14.2v17ZM599.7,245.5h13v4.9h-13v-4.9Z"></path><polygon class="st0" points="622.1 261.6 622.1 234.6 627.3 234.6 643.2 254 640.7 254 640.7 234.6 646.9 234.6 646.9 261.6 641.7 261.6 625.8 242.2 628.3 242.2 628.3 261.6 622.1 261.6"></polygon><polygon class="st0" points="661.2 261.6 661.2 239.7 652.6 239.7 652.6 234.6 676.1 234.6 676.1 239.7 667.4 239.7 667.4 261.6 661.2 261.6"></polygon><path class="st0" d="M694.9,262.1c-2.1,0-4.1-.3-5.9-1-1.8-.7-3.4-1.7-4.7-2.9-1.3-1.3-2.4-2.7-3.1-4.4-.7-1.7-1.1-3.5-1.1-5.5s.4-3.9,1.1-5.6c.7-1.7,1.8-3.2,3.1-4.4,1.3-1.3,2.9-2.2,4.7-2.9,1.8-.7,3.7-1,5.9-1s4.1.3,5.9,1c1.8.7,3.3,1.7,4.7,2.9,1.3,1.3,2.4,2.7,3.1,4.4.7,1.7,1.1,3.6,1.1,5.6s-.4,3.9-1.1,5.6c-.7,1.7-1.8,3.2-3.1,4.5-1.3,1.3-2.9,2.2-4.7,2.9-1.8.7-3.7,1-5.8,1M694.8,256.8c1.2,0,2.3-.2,3.3-.6,1-.4,1.9-1,2.7-1.8.8-.8,1.4-1.7,1.8-2.7.4-1,.6-2.2.6-3.5s-.2-2.4-.6-3.5c-.4-1-1-2-1.8-2.7-.8-.8-1.7-1.4-2.7-1.8-1-.4-2.1-.6-3.3-.6s-2.3.2-3.4.6c-1,.4-1.9,1-2.7,1.8-.8.8-1.3,1.7-1.8,2.7-.4,1-.6,2.2-.6,3.5s.2,2.4.6,3.5c.4,1,1,2,1.8,2.7.8.8,1.7,1.4,2.7,1.8,1,.4,2.1.6,3.4.6"></path><path class="st0" d="M295.3,301.6v-27h12.3c2.9,0,5.5.6,7.7,1.7,2.2,1.1,4,2.7,5.2,4.7,1.3,2,1.9,4.4,1.9,7.1s-.6,5.1-1.9,7.1c-1.3,2-3,3.6-5.2,4.7-2.2,1.1-4.8,1.7-7.7,1.7h-12.3ZM301.6,296.5h5.7c1.8,0,3.4-.3,4.7-1,1.3-.7,2.3-1.7,3.1-2.9.7-1.3,1.1-2.8,1.1-4.5s-.4-3.2-1.1-4.5c-.7-1.3-1.8-2.2-3.1-2.9-1.3-.7-2.9-1-4.7-1h-5.7v16.8Z"></path><path class="st0" d="M335.7,296.6h14.7v5h-20.9v-27h20.4v5h-14.2v17ZM335.2,285.4h13v4.9h-13v-4.9Z"></path><polygon class="st0" points="379 301.6 367.3 274.6 374.1 274.6 384.3 298.5 380.3 298.5 390.6 274.6 396.8 274.6 385.2 301.6 379 301.6"></polygon><path class="st0" d="M408.2,296.6h14.7v5h-20.9v-27h20.4v5h-14.2v17ZM407.7,285.4h13v4.9h-13v-4.9Z"></path><path class="st0" d="M430.2,301.6v-27h11.7c2.4,0,4.5.4,6.2,1.2,1.7.8,3.1,1.9,4,3.4,1,1.5,1.4,3.2,1.4,5.2s-.5,3.8-1.4,5.2c-1,1.5-2.3,2.6-4,3.3-1.7.8-3.8,1.1-6.2,1.1h-8.2l2.9-2.7v10.2h-6.3ZM436.5,292l-2.9-3h7.9c1.9,0,3.3-.4,4.3-1.2,1-.8,1.5-2,1.5-3.5s-.5-2.6-1.5-3.4c-1-.8-2.4-1.2-4.3-1.2h-7.9l2.9-3v15.3ZM447.4,301.6l-6.8-9.8h6.7l6.8,9.8h-6.7Z"></path><path class="st0" d="M457.4,301.6l12-27h6.2l12.1,27h-6.5l-9.9-23.8h2.5l-9.9,23.8h-6.4ZM463.4,295.8l1.6-4.7h13.9l1.6,4.7h-17.1Z"></path><path class="st0" d="M505.7,302c-2.1,0-4-.3-5.8-1-1.8-.7-3.3-1.6-4.6-2.9-1.3-1.3-2.3-2.7-3.1-4.4-.7-1.7-1.1-3.6-1.1-5.6s.4-3.9,1.1-5.6c.7-1.7,1.8-3.2,3.1-4.4,1.3-1.3,2.9-2.2,4.7-2.9,1.8-.7,3.7-1,5.8-1s4.5.4,6.4,1.2c1.9.8,3.5,2,4.8,3.6l-4,3.7c-.9-1.1-1.9-1.9-3.1-2.4-1.1-.5-2.4-.8-3.7-.8s-2.4.2-3.5.6c-1.1.4-2,1-2.7,1.8-.8.8-1.4,1.7-1.8,2.7-.4,1.1-.6,2.2-.6,3.5s.2,2.5.6,3.5c.4,1.1,1,2,1.8,2.7.8.8,1.7,1.4,2.7,1.8,1.1.4,2.2.6,3.5.6s2.6-.3,3.7-.8c1.1-.6,2.2-1.4,3.1-2.4l4,3.7c-1.3,1.6-2.9,2.8-4.8,3.6-1.9.8-4,1.2-6.4,1.2"></path><path class="st0" d="M523.3,301.6v-27h11.7c2.4,0,4.5.4,6.2,1.2,1.7.8,3.1,1.9,4,3.4,1,1.5,1.4,3.2,1.4,5.2s-.5,3.8-1.4,5.2c-1,1.5-2.3,2.6-4,3.3-1.7.8-3.8,1.1-6.2,1.1h-8.2l2.9-2.7v10.2h-6.3ZM529.6,292l-2.9-3h7.9c1.9,0,3.3-.4,4.3-1.2,1-.8,1.5-2,1.5-3.5s-.5-2.6-1.5-3.4c-1-.8-2.4-1.2-4.3-1.2h-7.9l2.9-3v15.3ZM540.5,301.6l-6.8-9.8h6.7l6.8,9.8h-6.7Z"></path><path class="st0" d="M566,302c-3.8,0-6.8-1.1-9-3.2-2.2-2.1-3.2-5.2-3.2-9.2v-15.1h6.3v14.9c0,2.5.5,4.4,1.6,5.5,1.1,1.1,2.5,1.7,4.4,1.7s3.4-.6,4.4-1.7c1.1-1.1,1.6-3,1.6-5.5v-14.9h6.1v15.1c0,4-1.1,7-3.2,9.2-2.2,2.1-5.1,3.2-8.9,3.2"></path><polygon class="st0" points="585 301.6 585 297.5 601.7 277.4 602.5 279.7 585.3 279.7 585.3 274.6 608 274.6 608 278.6 591.4 298.8 590.6 296.5 608.6 296.5 608.6 301.6 585 301.6"></polygon><g><path class="st0" d="M306.9,320.6c0-1.2-.9-1.9-2.5-1.9s-4.1,1.1-6.1,2.8l-2.2-4.2c2.8-2.1,5.9-3.3,9.1-3.3s7.7,2.3,7.7,5.8-1.8,4.9-4.3,7.4l-4.5,4.5h9.4v4.6h-16.8v-3.8s8-8.2,8-8.2c1.2-1.3,2.1-2.7,2.1-3.6Z"></path><path class="st0" d="M351.3,325.2c0,7.2-3.1,11.2-8.6,11.2s-8.7-4-8.7-11.2,3.1-11.2,8.7-11.2,8.6,4,8.6,11.2ZM339.5,325.2c0,5,.9,7.1,3.1,7.1s3.1-2.1,3.1-7.1-.9-7.1-3.1-7.1-3.1,2.1-3.1,7.1Z"></path><path class="st0" d="M382.2,320.6c0-1.2-.9-1.9-2.5-1.9s-4.1,1.1-6.1,2.8l-2.2-4.2c2.8-2.1,5.9-3.3,9.1-3.3s7.7,2.3,7.7,5.8-1.8,4.9-4.3,7.4l-4.5,4.5h9.4v4.6h-16.8v-3.8s8-8.2,8-8.2c1.2-1.3,2.1-2.7,2.1-3.6Z"></path><path class="st0" d="M419.9,318.3c-3.4,0-5.1,2.2-5,5.8,1-1.5,2.7-2.4,5.1-2.4,4.3,0,7.1,2.8,7.1,7.1s-3.3,7.6-8.1,7.6-9.4-4.2-9.4-11,3.9-11.6,10-11.6,5.2.7,7,1.8l-2.1,4c-1.3-.9-2.9-1.4-4.6-1.4ZM415.5,329c0,1.6,1,3,3.2,3s3.1-1.1,3.1-3.1-1.1-3-3.1-3-3.3,1.3-3.3,3.1Z"></path><path class="st0" d="M456.1,324.8v3.6h-8.3v-3.6h8.3Z"></path><path class="st0" d="M487.7,320.6c0-1.2-.9-1.9-2.5-1.9s-4.1,1.1-6.1,2.8l-2.2-4.2c2.8-2.1,5.9-3.3,9.1-3.3s7.7,2.3,7.7,5.8-1.8,4.9-4.3,7.4l-4.5,4.5h9.4v4.6h-16.8v-3.8s8-8.2,8-8.2c1.2-1.3,2.1-2.7,2.1-3.6Z"></path><path class="st0" d="M532.1,325.2c0,7.2-3.1,11.2-8.6,11.2s-8.7-4-8.7-11.2,3.1-11.2,8.7-11.2,8.6,4,8.6,11.2ZM520.4,325.2c0,5,.9,7.1,3.1,7.1s3.1-2.1,3.1-7.1-.9-7.1-3.1-7.1-3.1,2.1-3.1,7.1Z"></path><path class="st0" d="M563.1,320.6c0-1.2-.9-1.9-2.5-1.9s-4.1,1.1-6.1,2.8l-2.2-4.2c2.8-2.1,5.9-3.3,9.1-3.3s7.7,2.3,7.7,5.8-1.8,4.9-4.3,7.4l-4.5,4.5h9.4v4.6h-16.8v-3.8s8-8.2,8-8.2c1.2-1.3,2.1-2.7,2.1-3.6Z"></path><path class="st0" d="M597.1,332.2c3.4,0,5.1-2.2,5-5.8-1,1.5-2.7,2.4-5.1,2.4-4.3,0-7-2.9-7-7.2s3.2-7.6,8.1-7.6,9.3,4.2,9.3,10.9-3.9,11.6-10,11.6-5.2-.7-7-1.8l2.1-4c1.3.9,2.9,1.4,4.5,1.4ZM595.1,321.6c0,1.9,1.1,3,3.1,3s3.3-1.3,3.3-3.1c0-1.6-1-3-3.2-3s-3.1,1.1-3.1,3.1Z"></path></g></g></svg>